<?xml version="1.0" encoding="UTF-8"?>
<svg xmlns="http://www.w3.org/2000/svg" xmlns:xlink="http://www.w3.org/1999/xlink" width="256.0px" height="170.0px" viewBox="0 0 256.0 170.0" version="1.1">

<defs>
<!-- polycosvg ratio="1.000000" offsetx="0.000000" offsety="0.000000" / -->
</defs><g>
<path style="fill:rgb(100.0%,100.0%,100.0%);fill-rule:evenodd;stroke:none;" name="Path No.46" d="M 0.0 170.0 C 85.32941 170.0 170.68126 170.0 256.0 170.0 C 256.0 113.32141 256.0 56.67326 256.0 0.0 C 170.66292 0.0 85.32641 0.0 0.0 0.0 C 0.0 56.675823 0.0 113.33786 0.0 170.0 Z M 147.0 45.0 C 142.38869 45.000916 137.77475 44.998882 133.16568 45.000603 C 124.53067 44.09851 123.990685 50.361397 122.675606 56.635242 C 121.14026 62.505024 119.69807 68.42141 117.948006 74.21969 C 115.62375 81.45072 114.15197 90.48952 111.04106 96.752174 C 105.997894 100.48066 97.318275 98.26483 91.55535 99.0 C 87.27395 99.00971 80.76897 99.99265 81.170525 93.54393 C 81.34402 89.61316 82.58579 85.84353 83.54998 82.07493 C 84.36083 79.65799 84.98515 76.05945 86.59185 74.61517 C 88.96886 72.0265 94.374985 73.54777 98.032745 73.0 C 102.02296 73.0 106.02064 73.0 110.0 73.0 C 110.309616 69.605064 112.01066 66.45147 112.0 63.0 C 102.99564 63.038425 93.96716 62.95202 84.96758 63.028664 C 79.00451 63.19773 71.30543 63.646645 66.95129 67.438805 C 60.535625 73.03131 59.93784 83.63774 57.325737 90.706985 C 56.59488 94.49902 54.84307 99.94094 55.872265 103.07744 C 56.75937 107.64374 62.26758 108.54154 66.36862 108.741295 C 73.84856 110.076324 81.30397 109.50869 88.8028 109.0 C 96.63399 109.14396 104.46475 109.41905 112.33395 108.797424 C 118.12877 108.447784 124.75818 108.21126 129.09023 103.70369 C 133.00633 98.80231 134.15749 92.3609 135.99284 86.545715 C 138.28827 78.45026 140.55954 70.35879 142.70465 62.23293 C 143.90486 56.44172 146.12442 50.85918 147.0 45.0 Z M 103.0 132.0 C 120.00253 130.45367 144.73495 135.99446 156.33952 117.07136 C 160.51625 108.6439 162.84566 99.417435 165.16003 90.35474 C 166.95457 81.410904 171.03198 71.332436 172.0 63.0 C 165.00462 63.0 157.99538 63.0 151.0 63.0 C 146.69586 78.13725 143.36134 96.97981 136.07635 109.66498 C 130.84425 117.13741 122.27309 116.74254 114.21481 116.99049 C 110.50312 116.81173 106.486664 116.82798 105.55314 121.68913 C 104.65019 125.11192 103.39591 128.48444 103.0 132.0 Z M 169.0 109.0 C 175.99538 109.0 183.00462 109.0 190.0 109.0 C 193.58842 93.62832 199.03857 78.500786 202.0 63.0 C 195.00462 63.0 187.99538 63.0 181.0 63.0 C 177.63959 78.42442 171.72055 93.451775 169.0 109.0 Z " />

<path style="fill:rgb(7.8431377%,7.8431377%,7.8431377%);fill-rule:evenodd;stroke:none;" name="Path No.47" d="M 149.0 44.5 C 142.38924 43.53395 132.95143 44.19134 127.457535 44.324123 C 124.10484 44.09448 123.60059 49.495953 122.80726 51.775543 C 121.87787 54.890778 120.94832 57.974743 120.20408 61.139545 C 118.10708 69.88408 115.311806 78.451096 113.19619 87.18591 C 112.15163 90.78743 111.4329 95.99063 106.79257 97.72973 C 102.999794 99.50258 96.32526 96.52416 94.5 100.0 C 93.39695 95.741455 83.86369 100.37614 82.442924 95.57921 C 82.18085 91.7986 83.05756 88.15112 84.13221 84.56024 C 85.14057 79.68234 86.04092 73.41355 93.29195 74.02437 C 99.18864 73.95544 105.11092 74.03644 111.0 74.0 C 111.54128 69.909 113.30952 66.068634 114.0 62.0 C 104.84553 61.421688 94.12557 62.73636 85.791954 62.16004 C 79.49384 62.04053 71.26939 62.41345 66.43986 66.01841 C 59.01389 72.35055 59.20173 82.63939 55.92413 91.29269 C 55.161915 95.34907 53.56801 100.34753 54.820824 104.06898 C 55.988014 109.010345 62.112858 109.65396 66.54705 109.84032 C 74.27409 110.65709 81.79263 110.04087 89.41512 110.0075 C 97.76147 110.31994 106.11351 110.38245 114.47961 109.71221 C 119.78545 109.24785 127.40339 109.202225 131.26263 103.11965 C 134.64975 97.53168 135.8582 91.01219 137.76778 84.86032 C 139.84827 76.84254 142.24132 68.92511 144.2697 60.90829 C 146.38138 55.568233 146.96442 48.83348 149.0 44.5 Z M 102.0 133.0 C 122.50387 132.19395 147.64854 136.27724 157.57326 117.64089 C 164.96008 99.77552 168.4792 80.47032 174.0 62.0 C 166.00677 62.0 157.99323 62.0 150.0 62.0 C 146.2508 75.360634 143.06665 91.63638 137.88733 103.33955 C 135.70503 109.76254 130.2446 114.963356 123.21599 115.34927 C 119.5093 115.83573 115.79456 115.98824 112.06282 116.00666 C 109.17003 116.01896 105.19571 115.85929 105.0 120.0 C 105.66391 120.0 106.33957 120.0 107.0 120.0 C 107.0 120.66391 107.0 121.33957 107.0 122.0 C 103.857635 122.09844 103.09742 125.440216 102.35374 128.87343 C 102.089165 130.22539 102.01438 131.62965 102.0 133.0 Z M 167.0 108.5 C 167.03067 109.04961 167.18602 109.55752 167.5 110.0 C 175.33398 110.0 183.17668 110.0 191.0 110.0 C 195.32574 94.031815 199.66008 77.97551 204.0 62.0 C 196.00677 62.0 187.99323 62.0 180.0 62.0 C 175.57295 77.17902 171.80649 93.72484 167.0 108.5 Z " />

<path style="fill:rgb(7.4509807%,7.4509807%,7.4509807%);fill-rule:evenodd;stroke:none;" name="Path No.48" d="M 87.0 62.375 C 89.889725 65.46848 96.57788 62.88765 100.033264 62.98186 C 101.364456 62.815666 102.67291 62.65747 104.0 62.5 C 98.88986 62.285286 92.95269 61.425262 87.0 62.375 Z M 99.0 99.125 C 100.270256 100.81488 104.00916 99.524284 105.59235 99.484634 C 107.157555 98.817314 109.175415 98.65483 111.0 98.5 C 110.54185 98.04935 110.088936 97.53988 109.75 97.0 C 106.272705 98.15425 102.43268 97.857285 99.0 99.125 Z M 103.0 124.625 C 105.67792 124.47214 109.26352 122.307144 107.200424 118.907524 C 106.99857 118.5858 106.746544 118.271996 106.5 118.0 C 104.66913 119.85344 104.24719 122.46476 103.0 124.625 Z M 108.0 99.4375 C 108.34256 99.847824 108.631226 99.73697 109.0 99.5 C 108.6804 99.296585 108.355736 99.06959 108.0 99.4375 Z M 109.0 116.25 C 109.69945 117.317154 111.52431 116.83883 112.5 118.0 C 113.00794 117.49206 113.4972 117.0028 114.0 116.5 C 112.48706 115.773544 110.46733 116.0685 109.0 116.0 C 109.0 116.09 109.0 116.17333 109.0 116.25 Z M 125.0 115.25 C 125.660995 116.37245 127.69445 115.94182 128.54137 115.652916 C 129.09883 115.32032 129.74121 114.80486 129.75 114.0 C 128.1832 114.43015 126.63047 114.97291 125.0 115.0 C 125.0 115.09 125.0 115.17333 125.0 115.25 Z " />

<path style="fill:rgb(8.235294%,8.235294%,8.235294%);fill-rule:evenodd;stroke:none;" name="Path No.49" d="M 90.0 62.3125 C 91.27927 63.66925 94.49366 62.124542 96.0 62.5 C 93.99261 62.34314 92.006935 62.112373 90.0 62.0 C 90.0 62.104168 90.0 62.208332 90.0 62.3125 Z M 91.0 99.375 C 92.311264 101.54815 95.60127 100.637085 97.46992 100.13793 C 98.32314 99.94067 99.16187 99.73743 100.0 99.5 C 97.056984 98.34794 94.01167 98.01913 91.0 99.0 C 91.0 99.10632 91.0 99.24868 91.0 99.375 Z M 194.0 74.375 C 194.68407 75.31588 196.45473 75.56879 197.6875 76.0 C 197.82253 74.82923 196.4204 74.23495 195.51595 74.04735 C 195.01471 73.992325 194.50252 73.99189 194.0 74.0 C 194.0 74.10632 194.0 74.24868 194.0 74.375 Z " />

<path style="fill:rgb(54.509808%,54.509808%,54.509808%);fill-rule:evenodd;stroke:none;" name="Path No.50" d="M 102.0 132.3125 C 107.13427 133.92201 114.635605 131.82787 120.0 132.5 C 114.04607 132.69989 107.88361 131.67976 102.0 132.3125 Z " />

<path style="fill:rgb(8.627451%,8.627451%,8.627451%);fill-rule:evenodd;stroke:none;" name="Path No.51" d="M 57.0 87.4375 C 57.342556 87.847824 57.63123 87.73697 58.0 87.5 C 57.680393 87.296585 57.35574 87.06959 57.0 87.4375 Z M 91.0 103.1875 C 93.57412 105.221985 99.141685 103.1448 102.0 103.5 C 98.37931 103.235435 94.52809 101.60018 91.0 103.1875 Z " />

<path style="fill:rgb(7.058824%,7.058824%,7.058824%);fill-rule:evenodd;stroke:none;" name="Path No.52" d="M 55.0 105.3125 C 55.334 106.021706 56.45081 105.659035 57.0 105.5 C 56.32876 105.298225 55.690525 105.09445 55.0 105.0 C 55.0 105.104164 55.0 105.208336 55.0 105.3125 Z M 65.0 67.3125 C 65.33842 68.05883 66.50521 67.79792 67.060234 67.679 C 67.36975 67.62005 67.69963 67.55721 68.0 67.5 C 67.00301 67.32872 66.00953 67.085724 65.0 67.0 C 65.0 67.104164 65.0 67.208336 65.0 67.3125 Z M 108.5 70.0 C 108.794556 69.35721 108.984505 68.701836 109.0 68.0 C 108.11602 68.057526 107.935356 68.77294 108.16667 69.48133 C 108.27778 69.65422 108.38889 69.82711 108.5 70.0 Z M 116.0 129.3125 C 116.42428 130.23192 117.97082 129.71625 118.687325 129.68106 C 119.125725 129.62059 119.56953 129.55937 120.0 129.5 C 118.65103 129.33122 117.340866 129.0987 116.0 129.0 C 116.0 129.10417 116.0 129.20833 116.0 129.3125 Z M 197.0 75.25 C 197.35474 75.86893 198.25647 76.04066 199.0 76.0 C 199.10472 77.021324 199.29904 77.99497 199.5 79.0 C 200.34846 76.84705 199.22552 75.00625 197.0 75.0 C 197.0 75.09 197.0 75.17333 197.0 75.25 Z " />

<path style="fill:rgb(6.666667%,6.666667%,6.666667%);fill-rule:evenodd;stroke:none;" name="Path No.53" d="M 147.5 126.0 C 148.34077 125.15923 149.16461 124.33538 150.0 123.5 C 148.99115 123.06191 147.91554 122.40306 147.0 122.0 C 147.06136 123.325 146.82608 124.79473 147.5 126.0 Z M 150.0 124.4375 C 150.34256 124.847824 150.63123 124.73697 151.0 124.5 C 150.68039 124.296585 150.35574 124.06959 150.0 124.4375 Z M 179.5 76.0 C 179.79456 75.35721 179.98451 74.701836 180.0 74.0 C 179.11603 74.057526 178.93536 74.77294 179.16667 75.48133 C 179.27779 75.65422 179.38889 75.82711 179.5 76.0 Z " />

<path style="fill:rgb(98.82353%,98.82353%,98.82353%);fill-rule:evenodd;stroke:none;" name="Path No.54" d="M 73.0 110.25 C 74.48994 111.807945 78.2169 110.442055 80.0 111.0 C 80.0 110.33609 80.0 109.66043 80.0 109.0 C 77.88928 109.10184 75.08405 108.4815 73.0 110.25 Z " />

<path style="fill:rgb(9.0196085%,9.0196085%,9.0196085%);fill-rule:evenodd;stroke:none;" name="Path No.55" d="M 126.0 54.0 C 126.0 53.33334 126.0 52.66533 126.0 52.0 C 124.9854 52.0 124.00171 52.0 123.0 52.0 C 122.76729 53.66209 123.85462 54.16543 125.20835 54.0 C 125.47761 54.0 125.741486 54.0 126.0 54.0 Z " />

<path style="fill:rgb(10.196078%,10.196078%,10.196078%);fill-rule:evenodd;stroke:none;" name="Path No.56" d="M 161.0 95.0 C 161.66666 95.0 162.33467 95.0 163.0 95.0 C 163.0 93.99472 163.0 93.00528 163.0 92.0 C 162.33334 92.0 161.66533 92.0 161.0 92.0 C 161.0 92.666664 161.0 93.33467 161.0 94.0 C 161.0 94.331894 161.0 94.66973 161.0 95.0 Z " />

<path style="fill:rgb(10.588236%,10.588236%,10.588236%);fill-rule:evenodd;stroke:none;" name="Path No.57" d="M 74.0 109.3125 C 75.27927 110.66925 78.49366 109.12454 80.0 109.5 C 77.99261 109.34314 76.006935 109.11237 74.0 109.0 C 74.0 109.104164 74.0 109.208336 74.0 109.3125 Z " />

<path style="fill:rgb(96.47059%,96.47059%,96.47059%);fill-rule:evenodd;stroke:none;" name="Path No.58" d="M 100.0 96.3125 C 100.42428 97.23191 101.97082 96.716255 102.687325 96.68106 C 103.125725 96.62059 103.56953 96.55937 104.0 96.5 C 102.65103 96.33122 101.340866 96.0987 100.0 96.0 C 100.0 96.104164 100.0 96.208336 100.0 96.3125 Z " />

<path style="fill:rgb(99.21568%,99.21568%,99.21568%);fill-rule:evenodd;stroke:none;" name="Path No.59" d="M 96.0 110.3125 C 96.42428 111.23191 97.97082 110.716255 98.687325 110.68106 C 99.125725 110.62059 99.56953 110.55937 100.0 110.5 C 98.65103 110.33122 97.340866 110.0987 96.0 110.0 C 96.0 110.104164 96.0 110.208336 96.0 110.3125 Z " />

<path style="fill:rgb(10.980392%,10.980392%,10.980392%);fill-rule:evenodd;stroke:none;" name="Path No.60" d="M 96.0 108.3125 C 96.42428 109.23191 97.97082 108.716255 98.687325 108.68106 C 99.125725 108.62059 99.56953 108.55937 100.0 108.5 C 98.65103 108.33122 97.340866 108.0987 96.0 108.0 C 96.0 108.104164 96.0 108.208336 96.0 108.3125 Z " />

<path style="fill:rgb(9.411765%,9.411765%,9.411765%);fill-rule:evenodd;stroke:none;" name="Path No.61" d="M 133.0 112.453125 C 133.44318 112.88143 134.04541 112.384224 134.42029 112.07971 C 134.61748 111.88252 134.81071 111.689285 135.0 111.5 C 134.27635 111.09549 133.29346 111.90637 133.0 112.453125 Z " />

<path style="fill:rgb(46.27451%,46.27451%,46.27451%);fill-rule:evenodd;stroke:none;" name="Path No.62" d="M 133.5 99.0 C 133.79456 98.35721 133.98451 97.701836 134.0 97.0 C 133.11603 97.057526 132.93536 97.77294 133.16667 98.48133 C 133.27779 98.65422 133.38889 98.82711 133.5 99.0 Z M 146.0 52.4375 C 146.34256 52.84782 146.63123 52.73697 147.0 52.5 C 146.68039 52.29658 146.35574 52.069584 146.0 52.4375 Z " />

<path style="fill:rgb(12.941177%,12.941177%,12.941177%);fill-rule:evenodd;stroke:none;" name="Path No.63" d="M 64.0 67.3125 C 64.334 68.021706 65.45081 67.659035 66.0 67.5 C 65.32876 67.298225 64.69053 67.09445 64.0 67.0 C 64.0 67.104164 64.0 67.208336 64.0 67.3125 Z M 67.0 67.4375 C 67.34256 67.847824 67.631226 67.73697 68.0 67.5 C 67.6804 67.296585 67.355736 67.06959 67.0 67.4375 Z " />

<path style="fill:rgb(39.607845%,39.607845%,39.607845%);fill-rule:evenodd;stroke:none;" name="Path No.64" d="M 116.0 75.4375 C 116.34256 75.847824 116.631226 75.73697 117.0 75.5 C 116.6804 75.296585 116.355736 75.06959 116.0 75.4375 Z M 148.0 68.4375 C 148.34256 68.847824 148.63123 68.73697 149.0 68.5 C 148.68039 68.296585 148.35574 68.06959 148.0 68.4375 Z " />

<path style="fill:rgb(27.450981%,27.450981%,27.450981%);fill-rule:evenodd;stroke:none;" name="Path No.65" d="M 170.0 98.4375 C 170.34256 98.847824 170.63123 98.73697 171.0 98.5 C 170.68039 98.296585 170.35574 98.06959 170.0 98.4375 Z " />

<path style="fill:rgb(14.509805%,14.509805%,14.509805%);fill-rule:evenodd;stroke:none;" name="Path No.66" d="M 136.0 107.4375 C 136.34256 107.847824 136.63123 107.73697 137.0 107.5 C 136.68039 107.296585 136.35574 107.06959 136.0 107.4375 Z " />

<path style="fill:rgb(49.019608%,49.019608%,49.019608%);fill-rule:evenodd;stroke:none;" name="Path No.67" d="M 64.0 67.4375 C 64.34256 67.847824 64.631226 67.73697 65.0 67.5 C 64.6804 67.296585 64.355736 67.06959 64.0 67.4375 Z " />

<path style="fill:rgb(46.666668%,46.666668%,46.666668%);fill-rule:evenodd;stroke:none;" name="Path No.68" d="M 158.0 115.4375 C 158.34256 115.847824 158.63123 115.73697 159.0 115.5 C 158.68039 115.296585 158.35574 115.06959 158.0 115.4375 Z " />

<path style="fill:rgb(20.392157%,20.392157%,20.392157%);fill-rule:evenodd;stroke:none;" name="Path No.69" d="M 133.0 97.4375 C 133.34256 97.847824 133.63123 97.73697 134.0 97.5 C 133.68039 97.296585 133.35574 97.06959 133.0 97.4375 Z " />

<path style="fill:rgb(41.568626%,41.568626%,41.568626%);fill-rule:evenodd;stroke:none;" name="Path No.70" d="M 169.5 103.0 C 169.79456 102.35721 169.98451 101.701836 170.0 101.0 C 169.11603 101.057526 168.93536 101.77294 169.16667 102.48133 C 169.2745 102.64913 169.40105 102.84603 169.5 103.0 Z " />

<path style="fill:rgb(47.058823%,47.058823%,47.058823%);fill-rule:evenodd;stroke:none;" name="Path No.71" d="M 157.0 117.4375 C 157.34256 117.847824 157.63123 117.73697 158.0 117.5 C 157.68039 117.296585 157.35574 117.06959 157.0 117.4375 Z " />

<path style="fill:rgb(44.705883%,44.705883%,44.705883%);fill-rule:evenodd;stroke:none;" name="Path No.72" d="M 148.0 44.4375 C 148.34256 44.84782 148.63123 44.73697 149.0 44.5 C 148.68039 44.29658 148.35574 44.069584 148.0 44.4375 Z " />

<path style="fill:rgb(18.431374%,18.431374%,18.431374%);fill-rule:evenodd;stroke:none;" name="Path No.73" d="M 190.0 109.4375 C 190.34256 109.847824 190.63123 109.73697 191.0 109.5 C 190.68039 109.296585 190.35574 109.06959 190.0 109.4375 Z " />

<path style="fill:rgb(18.82353%,18.82353%,18.82353%);fill-rule:evenodd;stroke:none;" name="Path No.74" d="M 169.0 102.4375 C 169.34256 102.847824 169.63123 102.73697 170.0 102.5 C 169.68039 102.296585 169.35574 102.06959 169.0 102.4375 Z " />

<path style="fill:rgb(37.2549%,37.2549%,37.2549%);fill-rule:evenodd;stroke:none;" name="Path No.75" d="M 84.0 82.4375 C 84.34256 82.847824 84.631226 82.73697 85.0 82.5 C 84.6804 82.296585 84.355736 82.06959 84.0 82.4375 Z " />

<path style="fill:rgb(21.960785%,21.960785%,21.960785%);fill-rule:evenodd;stroke:none;" name="Path No.76" d="M 180.0 62.4375 C 180.34256 62.84782 180.63123 62.73697 181.0 62.5 C 180.68039 62.29658 180.35574 62.069584 180.0 62.4375 Z " />
</g>
</svg>
