<?xml version="1.0" encoding="UTF-8"?>
<svg xmlns="http://www.w3.org/2000/svg" xmlns:xlink="http://www.w3.org/1999/xlink" width="230.0px" height="230.0px" viewBox="0 0 230.0 230.0" version="1.1">

<defs>
<!-- polycosvg ratio="1.000000" offsetx="0.000000" offsety="0.000000" / -->
</defs><g>
<path style="fill:rgb(100.0%,100.0%,100.0%);fill-rule:evenodd;stroke:none;" name="Path No.0" d="M 0.0 230.0 C 76.6647 230.0 153.34064 230.0 230.0 230.0 C 230.0 153.32141 230.0 76.673256 230.0 0.0 C 153.32602 0.0 76.65941 0.0 0.0 0.0 C 0.0 76.67399 0.0 153.34059 0.0 230.0 Z M 42.0 81.0 C 43.063282 75.7204 43.110004 70.35549 43.0 65.0 C 35.32107 64.88623 27.60045 64.825356 20.0 66.0 C 19.367311 69.954414 18.412165 73.43272 20.313068 78.03148 C 22.890114 81.377205 28.915123 81.64463 32.753128 81.41065 C 35.821907 81.07763 38.924206 80.955215 42.0 81.0 Z M 20.0 106.0 C 19.369635 109.952095 18.415392 113.41711 20.298927 118.01505 C 22.903692 121.3314 29.07609 120.625786 32.791237 120.992516 C 35.912746 120.9231 39.76499 121.460915 42.304802 118.50873 C 43.114204 115.112564 43.21224 110.62909 42.66476 107.433235 C 42.755592 103.03192 35.106007 104.427765 32.616875 104.39895 C 28.316702 104.37055 24.155794 105.09641 20.0 106.0 Z M 43.0 161.0 C 43.1062 155.63748 43.055992 150.27542 42.0 145.0 C 35.06977 145.87807 26.245075 141.80731 21.389341 146.81773 C 17.512259 151.09666 18.23066 160.44896 26.393929 160.52307 C 31.65576 161.15005 36.94808 160.98036 42.22828 161.0 C 42.48552 161.0 42.74276 161.0 43.0 161.0 Z M 50.0 103.19862 C 49.899323 115.162766 49.97651 126.844475 50.429188 138.52155 C 51.07199 146.58498 49.937782 156.61517 52.93381 163.60896 C 59.33784 177.80376 73.349846 176.98543 84.39813 176.99269 C 97.52313 177.01353 110.63011 176.98889 123.75125 177.0 C 133.4998 177.25012 144.91447 176.37779 153.82607 176.49084 C 160.9374 176.48041 168.21193 174.28294 172.82251 168.5634 C 180.19316 160.96034 177.82764 147.1543 178.8045 137.68967 C 179.17062 126.21251 178.89455 114.709854 179.0 103.23479 C 179.09225 92.992905 179.11499 82.75139 178.35515 72.53682 C 178.60574 64.831985 175.85843 59.40398 170.39755 54.904366 C 166.34648 50.058495 161.3863 49.41468 155.83295 49.59014 C 138.61801 48.685013 121.39649 49.118275 104.165726 49.0 C 95.60825 49.0 87.00925 49.0 78.45177 49.0 C 72.8854 48.81328 66.0751 48.169697 60.834366 52.940765 C 53.972313 58.064926 49.069077 65.63792 50.0 74.34395 C 50.0 83.86385 50.0 93.407646 50.0 103.19862 Z M 67.0 40.0 C 72.32533 40.417126 77.65693 41.01158 83.0 41.0 C 82.4692 34.154587 82.92516 25.32462 81.17548 19.3754 C 74.76265 13.682202 67.351616 18.002869 66.501434 25.074154 C 65.50561 30.02746 66.94487 35.044132 67.0 40.0 Z M 67.0 185.0 C 66.067505 191.26056 65.23624 199.02351 67.712326 204.65704 C 70.00392 210.3065 81.35271 210.08087 81.778244 202.43758 C 82.25348 197.16801 81.98408 190.92703 81.50909 186.13158 C 80.677315 183.86581 76.50831 184.35223 74.67752 184.0327 C 72.07761 184.01485 69.50263 184.32697 67.0 185.0 Z M 153.0 151.0 C 154.36516 139.07933 153.96817 127.066574 154.0 115.103226 C 154.0 105.93976 154.0 96.77628 154.0 87.61281 C 154.35867 81.91312 154.50824 73.924515 146.81866 73.399574 C 127.64725 71.65416 108.39174 75.23554 89.24853 73.449905 C 83.246284 72.52357 76.04888 72.99657 75.37295 81.477264 C 74.81142 102.12167 74.94556 122.91037 75.35614 143.551 C 75.28611 152.42221 82.067604 153.41548 89.04954 152.6671 C 99.47641 151.77646 111.75402 152.17578 121.32959 151.6008 C 131.50131 151.38365 143.7719 153.08275 153.0 151.0 Z M 100.0 140.0 C 104.585014 140.18852 105.349236 137.15155 104.98434 133.72008 C 105.00547 132.81361 104.99837 131.89987 105.0 131.0 C 109.517624 130.49782 114.69042 135.82932 118.34176 133.94734 C 122.25383 132.72595 126.77902 130.59041 130.5 135.0 C 130.973 134.52237 131.4552 134.08095 132.0 133.6875 C 132.44774 120.13253 133.06555 106.56029 133.0 93.0 C 132.33609 93.0 131.66043 93.0 131.0 93.0 C 128.12723 95.25132 128.85173 100.33159 128.21237 103.5102 C 127.48521 109.78703 128.78343 117.48654 126.97548 123.09172 C 124.185356 131.73158 106.45424 130.47462 105.84199 121.83038 C 103.89 112.62511 106.16267 101.374535 104.0 93.0 C 102.65595 93.0 101.3365 93.0 100.0 93.0 C 100.0 108.66872 100.0 124.34419 100.0 140.0 Z M 107.0 41.0 C 111.55776 40.38778 117.61861 41.637623 122.0109 38.78639 C 123.34549 34.56972 123.29355 27.826595 123.0701 24.272884 C 121.761185 15.777685 114.45596 16.619211 108.0 18.0 C 107.10095 25.157137 105.68803 35.141853 107.0 41.0 Z M 107.0 185.0 C 107.43171 191.56763 105.90692 201.41971 108.98409 206.31204 C 109.65202 209.4093 115.79063 208.3112 117.78925 208.04895 C 121.535866 207.17094 122.64898 203.65958 122.745384 200.7115 C 122.93496 195.73952 123.92212 187.8462 120.63976 184.82973 C 116.66287 183.42763 110.23671 184.01013 107.0 185.0 Z M 162.0 40.0 C 161.80302 34.120678 163.78467 26.755983 160.99019 20.173717 C 156.10356 13.5280485 146.35347 18.132414 146.99019 25.290354 C 147.10635 30.093254 144.24596 37.009365 147.65851 40.475273 C 152.43794 40.70312 157.216 40.30358 162.0 40.0 Z M 147.0 185.0 C 147.46428 191.61963 145.9533 201.55078 148.74731 206.54028 C 155.45679 211.83105 162.56586 207.07182 162.44759 200.18925 C 162.15976 195.35866 163.25099 188.02786 160.37093 184.73654 C 156.14075 183.72453 150.75139 183.74068 147.0 185.0 Z M 186.0 81.0 C 193.0506 80.8069 201.02496 82.99263 207.50723 78.94772 C 215.32062 73.4956 208.36856 64.58197 201.51907 64.85841 C 197.2529 64.75098 190.2139 63.508183 187.62596 66.85923 C 186.88724 71.38155 185.89186 76.769554 186.0 81.0 Z M 186.0 106.0 C 186.63023 109.92787 184.9024 116.66607 187.46977 119.26449 C 190.28242 122.23422 196.73235 120.32139 201.00403 120.95855 C 204.18051 120.95076 208.97493 120.15376 210.0604 115.83504 C 211.19225 112.69378 210.10999 106.49724 206.98773 105.932556 C 200.23657 103.306206 192.79759 104.54834 186.0 106.0 Z M 186.0046 152.47777 C 186.24544 154.71288 185.9568 157.72717 187.4103 159.20457 C 189.36812 160.34387 192.50247 159.93658 194.32027 160.4381 C 200.62106 161.17857 211.45906 161.55417 210.502 151.58981 C 209.35463 143.45706 199.47078 143.94691 193.61269 144.12775 C 191.70215 144.4994 188.3407 144.5641 187.2536 145.95343 C 185.82928 146.9221 186.37787 150.32416 186.0046 152.47777 Z " />

<path style="fill:rgb(27.450981%,33.333336%,44.705883%);fill-rule:evenodd;stroke:none;" name="Path No.1" d="M 43.0 82.0 C 44.17589 76.06181 44.077026 70.00997 44.0 64.0 C 35.64707 63.929066 27.274185 63.75209 19.0 65.0 C 18.277884 69.345535 17.174139 74.239845 19.486149 79.28638 C 22.92885 83.18776 29.709938 82.65651 33.812542 82.43466 C 36.880074 82.17396 39.922894 81.98803 43.0 82.0 Z M 19.0 105.0 C 18.443438 109.154396 17.068872 113.91831 19.324837 118.76808 C 21.606014 122.92742 29.880484 121.36314 33.527885 121.99999 C 37.17564 121.98257 42.53129 122.37573 43.549465 118.68527 C 44.025043 114.79392 44.2351 110.08688 43.6696 106.51724 C 43.668392 101.74071 35.329067 103.42118 32.638287 103.33604 C 28.005392 103.347435 23.480797 104.00613 19.0 105.0 Z M 44.0 162.0 C 44.072163 155.98238 44.174793 149.93437 43.0 144.0 C 35.65981 144.41434 26.660795 141.29054 20.713804 145.48796 C 16.121246 149.55234 17.054188 161.05524 25.153814 161.4533 C 31.150509 162.05545 37.31186 159.99712 43.261566 161.82536 C 43.50771 161.88358 43.753857 161.94179 44.0 162.0 Z M 98.0 178.0 C 111.409615 177.98074 124.82931 178.02348 138.22723 177.98732 C 146.55634 177.29251 158.1003 177.59688 164.84258 175.8016 C 170.77847 173.62157 176.58461 167.7734 178.2996 162.1951 C 181.2403 140.26463 179.32089 117.88331 180.0 95.84896 C 179.25954 82.066574 184.94687 50.102196 159.73354 48.73771 C 138.9684 47.620674 118.16199 48.133423 97.3877 48.0 C 87.0533 48.728878 74.65157 47.029423 65.26749 48.725094 C 59.033356 51.23987 53.513287 57.76416 50.60888 62.979713 C 48.806217 67.38044 50.53611 73.580475 50.0 78.8788 C 49.984505 96.28918 50.03429 113.616585 49.943615 130.95505 C 49.122475 138.35912 49.79804 147.02713 50.004856 153.83162 C 49.21157 164.76642 57.503468 176.27748 68.98075 176.97496 C 73.99257 177.33165 79.447044 178.83195 84.28773 176.69499 C 86.59675 176.13599 88.88813 176.85066 91.2848 176.26143 C 93.86517 176.15565 97.170006 175.5866 98.0 178.0 Z M 66.0 41.0 C 71.66856 41.47571 77.31878 42.05527 83.0 42.0 C 82.801575 34.236732 84.185135 26.164322 82.23501 18.583696 C 75.8544 12.481824 65.94672 16.510502 65.389 24.45691 C 64.59963 29.967068 65.75635 35.509613 66.0 41.0 Z M 66.0 184.0 C 65.03213 190.88942 64.187 199.44193 66.70572 205.65657 C 68.57733 211.1738 82.054855 211.59341 82.698784 203.99068 C 83.2444 197.92897 83.01694 190.6716 82.5172 185.14748 C 81.589424 182.63118 77.01614 183.35834 75.05434 183.00682 C 71.99618 182.96141 68.95138 183.21902 66.0 184.0 Z M 152.0 150.0 C 153.33824 138.47006 152.9951 126.872635 153.0 115.30185 C 152.99971 106.33912 153.00037 97.37539 152.9998 88.41293 C 153.38904 82.72853 153.4752 74.86138 145.82922 74.40141 C 136.22398 73.70866 126.450745 74.0133 116.85018 74.43272 C 107.88937 73.85741 98.7991 74.17361 89.84294 74.42961 C 84.01875 73.31268 76.73451 74.29832 76.35991 82.545975 C 75.0932 91.56143 76.786835 101.52449 76.0 112.390076 C 76.2809 122.59233 75.583954 132.84209 76.40544 143.02296 C 76.4225 150.93408 83.12306 152.70732 89.629585 151.553 C 100.09285 150.88861 110.572754 150.92822 121.05898 151.0 C 131.02225 150.4399 142.98302 151.89343 152.0 150.0 Z M 99.0 92.5 C 100.91668 100.15307 99.41666 108.31956 100.0 116.11934 C 100.0 124.41486 100.0 132.7155 100.0 141.0 C 101.65584 140.8247 103.969376 140.84357 105.11791 139.67538 C 105.85804 138.14034 105.84604 135.72607 106.06951 134.36336 C 106.025505 133.54588 106.26881 132.76718 106.5 132.0 C 112.26714 136.02377 117.62821 136.0904 123.3779 133.7714 C 126.32512 132.1656 129.507 136.57634 131.7966 135.00526 C 133.90771 132.96783 132.62805 127.99874 133.30984 125.514656 C 133.7917 114.34971 134.12589 103.17043 134.0 92.0 C 132.36507 92.10179 129.86766 92.237335 128.88278 93.32396 C 127.677505 94.68565 128.00754 97.69005 127.49176 99.15242 C 126.61834 105.79924 127.32813 112.53782 126.69611 119.18001 C 126.39818 123.99457 122.39783 127.863945 117.49942 127.84377 C 108.03323 128.97252 105.98285 121.51114 106.09667 114.11195 C 106.013405 106.719475 106.22478 99.3223 105.0 92.0 C 102.985634 92.0 101.00878 92.0 99.0 92.0 C 99.0 92.18 99.0 92.346664 99.0 92.5 Z M 106.0 42.0 C 111.19307 41.376396 118.04388 42.8854 123.08582 39.708782 C 124.188354 34.872005 124.74909 27.48918 124.14249 23.420998 C 122.842316 13.886491 112.486725 15.819189 107.0 17.0 C 105.88778 24.74719 104.44097 35.612694 106.0 42.0 Z M 106.0 184.0 C 106.55369 191.05714 104.876686 201.49022 107.70886 206.91266 C 109.106865 209.89049 114.084 209.9776 117.72037 209.37294 C 121.863205 208.74184 123.458755 205.5163 123.74541 201.71077 C 123.70497 196.218 125.166885 187.24463 121.635765 183.82727 C 117.0819 182.52164 109.70426 182.87634 106.0 184.0 Z M 145.0 40.5 C 149.4198 43.371605 157.14297 40.384888 163.0 41.0 C 162.62431 34.494225 165.51175 25.943867 161.64745 18.750433 C 157.2876 13.491305 145.12927 15.751115 145.98976 24.291788 C 144.81152 29.219484 146.93977 36.637093 145.0 40.5 Z M 145.46263 195.48848 C 146.19054 199.58696 145.46632 204.24937 147.87296 207.67035 C 150.55005 210.7295 156.9102 209.7778 159.74911 208.69377 C 164.08772 206.4811 163.6203 198.41022 163.6923 194.66046 C 163.35333 189.67738 164.00621 182.50955 156.73726 183.03102 C 153.63063 183.44418 148.34885 182.16594 146.63953 184.82133 C 145.619 187.78297 146.32133 192.05075 145.46263 195.48848 Z M 185.0 82.0 C 191.99641 81.59025 200.7855 84.57857 208.48119 79.95572 C 216.63739 74.25157 210.03735 63.764088 202.54091 63.92205 C 199.6659 63.5198 196.80853 63.703976 193.91139 63.9363 C 191.84578 64.16057 189.28645 63.97745 187.52841 64.781654 C 184.32956 69.2179 185.82744 77.887856 185.0 82.0 Z M 185.0 105.0 C 186.05536 110.06556 183.49045 116.46839 186.36719 120.16588 C 189.72292 123.57724 197.37051 121.04992 202.41673 121.9501 C 207.28154 122.088486 211.52298 119.38114 211.5749 114.78808 C 212.18245 111.11329 211.20105 105.83759 207.15518 104.57747 C 199.89925 102.45372 192.19745 103.281006 185.0 105.0 Z M 185.0 152.26402 C 185.27567 155.01863 184.7718 158.53717 186.39717 160.19305 C 188.7113 161.4085 191.79437 161.07666 194.15495 161.51239 C 201.13376 162.27773 212.43675 162.86884 211.74458 152.06772 C 211.83844 142.6453 200.86052 142.71628 194.03658 143.05017 C 191.49376 143.10666 188.72801 143.45238 186.47372 144.62085 C 184.80586 146.20819 185.20303 149.4376 185.0 152.26402 Z " />

<path style="fill:rgb(36.47059%,41.568626%,51.37255%);fill-rule:evenodd;stroke:none;" name="Path No.2" d="M 65.0 48.3125 C 87.85109 50.115177 111.89152 47.61943 135.0 48.5 C 111.7206 48.81145 88.20877 47.580288 65.0 48.3125 Z " />

<path style="fill:rgb(72.94118%,75.29412%,79.21569%);fill-rule:evenodd;stroke:none;" name="Path No.3" d="M 49.0 127.0 C 49.663906 127.0 50.339565 127.0 51.0 127.0 C 50.859444 116.52165 51.014275 106.03596 51.0 95.53391 C 49.87059 85.53946 52.62941 72.95079 49.5 65.0 C 48.08123 85.33189 49.7521 106.49825 49.0 127.0 Z " />

<path style="fill:rgb(62.745102%,65.882355%,71.76471%);fill-rule:evenodd;stroke:none;" name="Path No.4" d="M 99.0 141.0 C 99.66391 141.0 100.33957 141.0 101.0 141.0 C 101.0 132.5879 101.0 124.212105 101.0 115.8 C 101.0 111.6 101.0 107.4 101.0 103.2 C 100.799515 99.6165 101.51121 94.85695 99.5 92.0 C 98.095665 107.96996 99.73767 124.84817 99.0 141.0 Z M 145.0 41.0 C 145.66391 41.0 146.33957 41.0 147.0 41.0 C 146.4768 37.244495 148.18985 31.091503 145.0 29.0 C 145.0 33.00473 145.0 37.006172 145.0 41.0 Z " />

<path style="fill:rgb(21.960785%,28.627453%,40.784313%);fill-rule:evenodd;stroke:none;" name="Path No.5" d="M 101.0 141.0 C 100.451546 125.94698 101.71512 108.15171 100.5 93.0 C 99.16139 100.7389 100.67194 109.306526 100.0 117.21526 C 100.0 121.549385 100.0 125.89252 100.0 130.21902 C 100.78595 133.2929 98.95477 139.22673 101.0 141.0 Z M 146.5 41.0 C 146.41093 37.42974 147.81793 32.833454 146.5 30.0 C 145.13219 33.143456 146.66397 37.74383 146.5 41.0 Z " />

<path style="fill:rgb(57.254906%,60.784317%,67.45098%);fill-rule:evenodd;stroke:none;" name="Path No.6" d="M 86.0 176.5 C 86.03066 177.0496 86.18602 177.55751 86.5 178.0 C 105.33854 178.05937 124.178635 177.77817 143.0 177.5 C 133.18947 177.36919 123.37306 177.23831 113.57201 177.10762 C 104.50694 177.82788 94.88959 175.11653 86.0 176.5 Z " />

<path style="fill:rgb(35.294117%,40.784313%,50.588238%);fill-rule:evenodd;stroke:none;" name="Path No.7" d="M 50.5 116.0 C 50.247017 99.816505 52.030087 83.00659 50.5 67.0 C 48.956528 83.00182 50.764923 99.83272 50.5 116.0 Z " />

<path style="fill:rgb(80.0%,81.56863%,84.70589%);fill-rule:evenodd;stroke:none;" name="Path No.8" d="M 88.0 152.375 C 88.79261 153.40404 90.717384 152.48355 91.64005 152.27727 C 92.42982 151.9983 93.20542 151.74323 94.0 151.5 C 92.192924 150.99701 89.53992 150.54364 88.0 152.375 Z M 97.0 151.25 C 101.44849 153.20958 106.36235 151.04015 111.11712 152.0 C 115.978615 151.39183 121.24745 152.77484 126.0 151.5 C 125.54185 151.04935 125.088936 150.53989 124.75 150.0 C 115.57391 151.5347 106.19245 150.70091 97.0 151.25 Z " />

<path style="fill:rgb(25.098042%,31.372551%,43.137257%);fill-rule:evenodd;stroke:none;" name="Path No.9" d="M 81.0 177.5 C 87.358635 178.27132 92.95106 176.20554 99.0 177.0 C 99.0 176.33609 99.0 175.66043 99.0 175.0 C 93.45356 175.614 84.46074 174.0954 81.0 177.5 Z M 130.0 175.3125 C 133.30261 176.84224 138.48695 174.91748 142.0 175.5 C 138.1571 175.66193 133.47403 174.69653 130.0 175.3125 Z " />

<path style="fill:rgb(35.686275%,40.784313%,50.980396%);fill-rule:evenodd;stroke:none;" name="Path No.10" d="M 49.5 138.0 C 52.57679 133.36284 50.078907 125.122185 50.5 119.0 C 50.217766 124.71651 47.543278 131.21114 49.5 138.0 Z M 89.0 74.25 C 91.30402 75.74719 96.501625 74.66948 99.0 74.5 C 96.57065 72.241745 91.016365 72.84159 89.0 74.25 Z " />

<path style="fill:rgb(85.09804%,86.27451%,88.62745%);fill-rule:evenodd;stroke:none;" name="Path No.11" d="M 30.0 103.3125 C 33.6194 104.86128 39.16406 102.89626 43.0 103.5 C 38.701157 103.70093 34.237812 102.67269 30.0 103.3125 Z M 194.0 103.3125 C 195.54462 104.72071 199.2191 103.064026 201.0 103.5 C 198.67065 103.34792 196.32922 103.11433 194.0 103.0 C 194.0 103.104164 194.0 103.208336 194.0 103.3125 Z " />

<path style="fill:rgb(61.17647%,64.31373%,70.19608%);fill-rule:evenodd;stroke:none;" name="Path No.12" d="M 25.0 161.125 C 27.622316 163.23471 33.677742 161.05696 36.67834 162.0 C 38.999874 161.95114 42.17879 162.10263 44.0 161.5 C 39.364788 158.36539 31.079454 160.97833 25.0 161.125 Z " />

<path style="fill:rgb(37.64706%,42.7451%,52.549023%);fill-rule:evenodd;stroke:none;" name="Path No.13" d="M 98.0 74.25 C 100.202576 76.05796 104.9555 73.92933 107.350044 74.85399 C 110.64985 74.747505 115.38052 75.463036 118.0 74.5 C 115.40591 72.39794 110.65716 73.22354 108.12183 73.0 C 104.78547 73.17668 100.999916 72.507576 98.0 74.25 Z " />

<path style="fill:rgb(74.117645%,76.47059%,80.78432%);fill-rule:evenodd;stroke:none;" name="Path No.14" d="M 49.5 142.0 C 49.401585 136.73178 50.85214 130.28542 49.5 126.0 C 48.076622 130.886 49.707493 137.40454 49.5 142.0 Z " />

<path style="fill:rgb(85.4902%,86.666664%,88.62745%);fill-rule:evenodd;stroke:none;" name="Path No.15" d="M 89.0 74.3125 C 94.28586 75.90492 99.49546 73.847244 105.0 74.5 C 99.711876 74.7129 94.22441 73.6649 89.0 74.3125 Z " />

<path style="fill:rgb(39.215687%,44.313725%,53.725494%);fill-rule:evenodd;stroke:none;" name="Path No.16" d="M 29.0 64.3125 C 33.92152 65.89587 38.86559 63.85767 44.0 64.5 C 39.04816 64.6918 33.899555 63.68515 29.0 64.3125 Z " />

<path style="fill:rgb(38.431374%,43.52941%,52.941177%);fill-rule:evenodd;stroke:none;" name="Path No.17" d="M 118.0 73.3125 C 122.562126 74.88997 127.21534 72.865715 132.0 73.5 C 127.35581 73.67725 122.587456 72.69815 118.0 73.3125 Z " />

<path style="fill:rgb(21.960785%,28.235296%,40.39216%);fill-rule:evenodd;stroke:none;" name="Path No.18" d="M 81.0 40.625 C 81.86842 41.37118 82.86707 41.863552 84.0 42.0 C 83.55616 37.533455 84.610504 31.997211 83.5 28.0 C 80.43628 31.423124 83.39705 37.46529 81.0 40.625 Z " />

<path style="fill:rgb(68.62746%,71.37255%,76.07843%);fill-rule:evenodd;stroke:none;" name="Path No.19" d="M 83.5 42.0 C 83.37354 37.449722 84.87374 31.610394 83.5 28.0 C 82.1031 32.054325 83.68129 37.815414 83.5 42.0 Z " />

<path style="fill:rgb(27.843138%,33.72549%,45.098038%);fill-rule:evenodd;stroke:none;" name="Path No.20" d="M 153.5 133.0 C 153.41023 128.73723 154.83212 123.44242 153.5 120.0 C 152.09601 123.76437 153.67976 129.1177 153.5 133.0 Z " />

<path style="fill:rgb(22.352942%,28.627453%,40.784313%);fill-rule:evenodd;stroke:none;" name="Path No.21" d="M 30.0 160.3125 C 33.6194 161.86128 39.16406 159.89626 43.0 160.5 C 38.701157 160.70093 34.237812 159.67268 30.0 160.3125 Z " />

<path style="fill:rgb(94.5098%,94.90196%,95.68627%);fill-rule:evenodd;stroke:none;" name="Path No.22" d="M 106.0 74.3125 C 109.302605 75.84224 114.48696 73.91748 118.0 74.5 C 114.1571 74.661934 109.47404 73.69653 106.0 74.3125 Z " />

<path style="fill:rgb(22.745098%,29.01961%,41.17647%);fill-rule:evenodd;stroke:none;" name="Path No.23" d="M 87.0 176.3125 C 90.302605 177.84224 95.48696 175.91748 99.0 176.5 C 95.1571 176.66193 90.47404 175.69653 87.0 176.3125 Z " />

<path style="fill:rgb(46.27451%,50.588238%,59.21569%);fill-rule:evenodd;stroke:none;" name="Path No.24" d="M 179.5 116.0 C 179.3827 112.118065 180.85318 107.063286 179.5 104.0 C 178.1119 107.4539 179.67004 112.42047 179.5 116.0 Z " />

<path style="fill:rgb(51.37255%,55.29412%,63.137257%);fill-rule:evenodd;stroke:none;" name="Path No.25" d="M 193.0 143.3125 C 195.75171 144.82126 201.04413 142.94106 204.0 143.5 C 200.46889 143.65005 196.19038 142.7062 193.0 143.3125 Z " />

<path style="fill:rgb(50.588238%,54.509808%,62.352943%);fill-rule:evenodd;stroke:none;" name="Path No.26" d="M 69.0 183.3125 C 71.47291 184.822 76.32938 182.9434 79.0 183.5 C 75.656975 183.34592 72.33435 183.12766 69.0 183.0 C 69.0 183.10417 69.0 183.20833 69.0 183.3125 Z " />

<path style="fill:rgb(67.45098%,70.19608%,75.29412%);fill-rule:evenodd;stroke:none;" name="Path No.27" d="M 185.0 82.0 C 185.71169 81.97109 186.35855 81.80419 187.0 81.5 C 184.83453 79.26141 186.9988 75.12127 185.5 73.0 C 184.30566 75.512985 185.52766 79.34295 185.0 82.0 Z " />

<path style="fill:rgb(70.588234%,72.94118%,77.64706%);fill-rule:evenodd;stroke:none;" name="Path No.28" d="M 125.0 151.3125 C 127.47291 152.822 132.32938 150.9434 135.0 151.5 C 131.65697 151.34592 128.33435 151.12766 125.0 151.0 C 125.0 151.10417 125.0 151.20833 125.0 151.3125 Z " />

<path style="fill:rgb(93.725494%,94.5098%,95.29412%);fill-rule:evenodd;stroke:none;" name="Path No.29" d="M 105.5 40.0 C 105.44264 36.76505 106.793625 32.55086 105.5 30.0 C 104.15529 32.837566 105.642334 37.039764 105.5 40.0 Z " />

<path style="fill:rgb(47.45098%,51.76471%,60.000004%);fill-rule:evenodd;stroke:none;" name="Path No.30" d="M 179.5 105.0 C 179.41093 101.42974 180.81793 96.83345 179.5 94.0 C 178.13219 97.143456 179.66397 101.74383 179.5 105.0 Z " />

<path style="fill:rgb(27.058825%,32.941177%,44.313725%);fill-rule:evenodd;stroke:none;" name="Path No.31" d="M 103.0 92.25 C 104.05157 94.04388 103.886856 96.50755 105.5 98.0 C 106.632904 95.92737 105.28017 91.7637 103.0 92.0 C 103.0 92.09 103.0 92.17333 103.0 92.25 Z " />

<path style="fill:rgb(69.803925%,72.15687%,77.254906%);fill-rule:evenodd;stroke:none;" name="Path No.32" d="M 73.0 177.25 C 75.36447 179.11662 80.39212 177.17455 83.0 177.5 C 79.751076 177.52696 75.44701 175.37096 73.0 177.25 Z " />

<path style="fill:rgb(30.980392%,36.47059%,47.45098%);fill-rule:evenodd;stroke:none;" name="Path No.33" d="M 75.5 118.0 C 75.05149 115.200554 77.370865 110.75028 75.0 109.0 C 74.893456 112.02168 75.062775 115.02276 75.5 118.0 Z " />

<path style="fill:rgb(26.666668%,32.54902%,43.92157%);fill-rule:evenodd;stroke:none;" name="Path No.34" d="M 74.0 89.0 C 74.666664 89.0 75.33467 89.0 76.0 89.0 C 76.0 87.66482 76.0 86.32452 76.0 85.0 C 75.333336 85.0 74.66533 85.0 74.0 85.0 C 74.0 86.33813 74.0 87.66847 74.0 89.0 Z " />

<path style="fill:rgb(33.333336%,38.82353%,49.411766%);fill-rule:evenodd;stroke:none;" name="Path No.35" d="M 74.0 176.3125 C 74.33842 177.05884 75.50521 176.79791 76.060234 176.679 C 76.36975 176.62004 76.69963 176.5572 77.0 176.5 C 76.00301 176.32872 75.00953 176.08572 74.0 176.0 C 74.0 176.10417 74.0 176.20833 74.0 176.3125 Z M 156.0 177.5 C 154.28505 175.62141 152.12271 175.98013 150.0 176.0 C 149.89035 177.87086 151.45123 178.06445 152.88689 178.0 C 153.91571 178.00398 155.1781 177.9948 156.0 177.5 Z " />

<path style="fill:rgb(34.901962%,40.0%,50.196083%);fill-rule:evenodd;stroke:none;" name="Path No.36" d="M 192.0 64.25 C 193.59068 65.82533 197.84416 64.75125 199.45314 64.02023 C 199.63007 63.851933 199.83766 63.654434 200.0 63.5 C 197.68079 62.46125 193.58864 62.97227 192.0 64.25 Z " />

<path style="fill:rgb(80.78432%,82.35294%,85.4902%);fill-rule:evenodd;stroke:none;" name="Path No.37" d="M 193.0 63.3125 C 194.54462 64.72071 198.2191 63.064026 200.0 63.5 C 197.67065 63.347927 195.32922 63.11433 193.0 63.0 C 193.0 63.104168 193.0 63.208332 193.0 63.3125 Z " />

<path style="fill:rgb(45.490196%,49.80392%,58.431374%);fill-rule:evenodd;stroke:none;" name="Path No.38" d="M 28.0 121.3125 C 29.54462 122.72071 33.219105 121.064026 35.0 121.5 C 32.67065 121.34792 30.32923 121.11433 28.0 121.0 C 28.0 121.104164 28.0 121.208336 28.0 121.3125 Z " />

<path style="fill:rgb(78.43137%,80.0%,83.52941%);fill-rule:evenodd;stroke:none;" name="Path No.39" d="M 26.0 82.3125 C 27.54462 83.72071 31.219105 82.064026 33.0 82.5 C 30.670649 82.34792 28.32923 82.11433 26.0 82.0 C 26.0 82.104164 26.0 82.208336 26.0 82.3125 Z " />

<path style="fill:rgb(49.80392%,53.725494%,61.56863%);fill-rule:evenodd;stroke:none;" name="Path No.40" d="M 179.5 131.0 C 179.48311 129.36317 180.94145 125.57803 179.0 125.0 C 178.91719 127.03135 179.09027 129.02786 179.5 131.0 Z " />

<path style="fill:rgb(39.215687%,43.92157%,53.725494%);fill-rule:evenodd;stroke:none;" name="Path No.41" d="M 18.5 157.0 C 18.483116 155.36317 19.94145 151.57803 18.0 151.0 C 17.917189 153.03136 18.090265 155.02786 18.5 157.0 Z " />

<path style="fill:rgb(62.352943%,65.4902%,71.37255%);fill-rule:evenodd;stroke:none;" name="Path No.42" d="M 28.0 143.3125 C 29.27927 144.66925 32.49366 143.12454 34.0 143.5 C 31.992607 143.34314 30.006937 143.11238 28.0 143.0 C 28.0 143.10417 28.0 143.20833 28.0 143.3125 Z " />

<path style="fill:rgb(69.803925%,72.54902%,77.254906%);fill-rule:evenodd;stroke:none;" name="Path No.43" d="M 150.0 177.3125 C 151.27927 178.66925 154.49367 177.12454 156.0 177.5 C 153.9926 177.34314 152.00694 177.11238 150.0 177.0 C 150.0 177.10417 150.0 177.20833 150.0 177.3125 Z " />

<path style="fill:rgb(97.64706%,97.64706%,98.039215%);fill-rule:evenodd;stroke:none;" name="Path No.44" d="M 120.0 150.3125 C 121.050835 151.54468 123.73304 150.26192 125.0 150.5 C 123.333015 150.33997 121.66849 150.10614 120.0 150.0 C 120.0 150.10417 120.0 150.20833 120.0 150.3125 Z " />

<path style="fill:rgb(94.90196%,95.29412%,96.07843%);fill-rule:evenodd;stroke:none;" name="Path No.45" d="M 124.5 29.0 C 124.68643 27.507277 125.733864 24.503666 124.0 24.0 C 123.91228 25.691473 124.08741 27.367659 124.5 29.0 Z " />

<path style="fill:rgb(60.39216%,63.529415%,69.803925%);fill-rule:evenodd;stroke:none;" name="Path No.46" d="M 82.0 177.3125 C 83.050835 178.54468 85.73304 177.26192 87.0 177.5 C 85.333015 177.33997 83.66849 177.10614 82.0 177.0 C 82.0 177.10417 82.0 177.20833 82.0 177.3125 Z " />

<path style="fill:rgb(69.803925%,72.15687%,76.86275%);fill-rule:evenodd;stroke:none;" name="Path No.47" d="M 194.0 161.3125 C 195.27927 162.66925 198.49367 161.12454 200.0 161.5 C 197.9926 161.34314 196.00694 161.11238 194.0 161.0 C 194.0 161.10417 194.0 161.20833 194.0 161.3125 Z " />

<path style="fill:rgb(49.411766%,53.333336%,61.56863%);fill-rule:evenodd;stroke:none;" name="Path No.48" d="M 179.5 93.0 C 179.48311 91.363174 180.94145 87.57803 179.0 87.0 C 178.91719 89.03135 179.09027 91.02786 179.5 93.0 Z " />

<path style="fill:rgb(67.05882%,69.803925%,74.90196%);fill-rule:evenodd;stroke:none;" name="Path No.49" d="M 199.0 161.3125 C 200.05083 162.54468 202.73303 161.26192 204.0 161.5 C 202.33301 161.33997 200.66849 161.10614 199.0 161.0 C 199.0 161.10417 199.0 161.20833 199.0 161.3125 Z " />

<path style="fill:rgb(44.705883%,49.411766%,58.03922%);fill-rule:evenodd;stroke:none;" name="Path No.50" d="M 65.5 197.0 C 65.68643 195.50728 66.733864 192.50366 65.0 192.0 C 64.91228 193.69147 65.08741 195.36766 65.5 197.0 Z " />

<path style="fill:rgb(80.39216%,81.960785%,85.09804%);fill-rule:evenodd;stroke:none;" name="Path No.51" d="M 195.0 82.3125 C 196.05083 83.54467 198.73303 82.26192 200.0 82.5 C 198.33301 82.339966 196.66849 82.10614 195.0 82.0 C 195.0 82.104164 195.0 82.208336 195.0 82.3125 Z " />

<path style="fill:rgb(26.274511%,32.156864%,43.52941%);fill-rule:evenodd;stroke:none;" name="Path No.52" d="M 86.0 152.3125 C 87.050835 153.54468 89.73304 152.26192 91.0 152.5 C 89.333015 152.33997 87.66849 152.10614 86.0 152.0 C 86.0 152.10417 86.0 152.20833 86.0 152.3125 Z " />

<path style="fill:rgb(48.235294%,52.549023%,60.784317%);fill-rule:evenodd;stroke:none;" name="Path No.53" d="M 179.5 95.0 C 179.92085 93.994545 180.3703 92.19173 179.0 92.0 C 178.97668 93.032646 179.1476 94.04461 179.5 95.0 Z " />

<path style="fill:rgb(25.882355%,31.764708%,43.52941%);fill-rule:evenodd;stroke:none;" name="Path No.54" d="M 188.0 64.3125 C 188.334 65.021706 189.4508 64.659035 190.0 64.5 C 189.32877 64.298225 188.69052 64.09445 188.0 64.0 C 188.0 64.104164 188.0 64.208336 188.0 64.3125 Z " />
</g>
</svg>
