<?xml version="1.0" encoding="UTF-8"?>
<svg xmlns="http://www.w3.org/2000/svg" xmlns:xlink="http://www.w3.org/1999/xlink" width="1890.0px" height="1417.0px" viewBox="0 0 1890.0 1417.0" version="1.1">

<defs>
<!-- polycosvg ratio="1.000000" offsetx="0.000000" offsety="0.000000" / -->
</defs><g>
<path style="fill:rgb(100.0%,100.0%,100.0%);fill-rule:evenodd;stroke:none;" name="Path No.93" d="M 215.0639 908.7751 C 214.64822 916.4416 220.50542 920.26373 226.90436 919.95856 C 242.6142 920.0768 258.32697 919.937 274.02322 920.0 C 286.74417 919.95355 307.12982 924.0722 311.07504 904.6242 C 322.17657 858.6974 333.48245 812.8374 344.5311 766.8986 C 356.72064 717.2708 368.58484 667.5815 380.7758 617.95886 C 382.08734 608.76587 386.37622 598.24426 386.58792 589.71655 C 384.5537 577.86084 373.42514 577.53784 365.37195 578.00244 C 346.879 578.4179 328.31342 577.48535 309.83466 578.2877 C 302.92377 578.9673 296.07495 582.62415 292.67603 588.9109 C 277.50388 641.491 267.5047 695.6787 253.10657 748.51166 C 246.85901 775.2454 239.78738 801.7841 233.78708 828.5639 C 230.61694 842.1583 226.89207 855.62103 223.94067 869.2608 C 221.41646 882.0154 216.11346 896.60876 215.0639 908.7751 Z M 628.5 789.0 C 631.82983 801.3921 642.7329 799.14575 652.47894 799.0 C 682.2478 799.0 712.05835 799.0 741.8272 799.0 C 753.0385 798.98364 764.21027 799.01996 775.4142 798.9892 C 784.1032 799.5174 792.51825 796.87085 798.9739 791.024 C 845.7876 755.2336 893.9494 721.10596 940.5 685.0 C 954.05096 707.0622 968.386 728.7808 982.37756 750.5838 C 987.76587 758.56067 992.57666 766.89636 997.92676 774.88727 C 1002.8287 781.5279 1006.8562 790.8077 1012.69867 795.8596 C 1019.641 800.6395 1030.7131 798.33484 1038.4646 799.0 C 1054.1842 799.0 1069.8959 799.0 1085.5995 799.0 C 1096.4025 798.7921 1110.0083 800.2247 1117.7646 794.1742 C 1125.524 787.8327 1122.6915 779.9729 1118.1243 773.6844 C 1105.3716 755.16095 1092.1897 736.9435 1079.574 718.3306 C 1060.402 690.49786 1040.744 663.03467 1021.7098 635.11053 C 1018.6132 631.03485 1015.8837 626.7092 1013.0 622.5 C 1073.329 575.6434 1133.708 528.7589 1193.9729 481.81284 C 1200.4471 477.56247 1211.5289 467.97208 1202.046 458.8198 C 1198.356 455.6162 1193.1322 456.0686 1188.5557 456.0 C 1170.4712 456.0 1152.3867 456.0 1134.3022 456.0 C 1119.9946 454.5135 1111.4501 462.39337 1102.1188 470.39404 C 1074.8958 491.98813 1047.4333 513.2367 1020.31976 534.95374 C 1005.8415 546.2378 991.5533 557.847 977.0 569.0 C 966.8118 556.78485 959.0659 542.36334 949.4262 529.66455 C 933.7741 506.8829 918.4008 483.83057 902.46375 461.27255 C 894.2452 453.34695 879.0373 456.90588 869.02014 456.0 C 847.83093 456.00418 826.66895 455.9949 805.4905 456.00275 C 798.55286 455.67517 790.5605 457.90854 786.9871 464.47754 C 783.4962 470.65857 786.2423 476.30646 789.9607 480.87286 C 813.35516 514.583 837.0856 548.0949 860.3911 581.86237 C 867.80884 592.35535 875.06555 602.96747 882.39764 613.51874 C 885.6753 618.11444 888.8799 622.791 892.1761 627.3733 C 893.4597 629.3859 895.5455 632.0996 895.507 634.0999 C 889.0686 641.7597 879.1651 646.36615 871.92255 653.313 C 843.1105 674.9236 814.7556 697.116 785.9935 718.77844 C 778.86224 724.4616 771.4713 729.79724 764.33307 735.455 C 759.19257 739.46783 752.9943 745.1559 746.5949 744.9697 C 723.39404 745.0561 700.18866 744.954 677.0 745.0 C 684.39465 725.1991 690.4689 704.9426 694.4677 684.1239 C 703.169 648.14966 712.3251 612.3038 720.7043 576.25885 C 726.6445 549.23474 737.3344 520.98486 731.3781 492.884 C 725.8526 470.84647 706.27075 462.31357 686.03357 458.53476 C 653.23865 453.4384 619.88824 455.38336 586.855 455.0 C 552.6792 455.0 518.545 455.0 484.36917 455.0 C 451.80545 455.0 419.24173 455.0 386.678 455.0 C 372.48935 455.01862 358.30035 454.9773 344.1186 455.01227 C 338.03842 454.8596 331.47293 456.01187 327.03323 460.5685 C 322.50226 464.68594 321.8973 471.00308 320.61566 476.58646 C 319.12775 482.20892 317.69614 487.8386 316.6615 493.5526 C 315.58804 498.4825 315.4717 505.25674 320.2722 507.4842 C 329.069 511.86075 342.9017 508.97787 354.06854 510.0 C 441.57297 510.0 529.0694 510.0 616.5578 510.0 C 621.8309 510.16788 628.3393 509.43878 632.93677 511.368 C 641.0668 516.3326 633.9995 531.2341 633.2896 537.7373 C 617.4315 600.7271 602.8656 663.9962 586.9876 726.9783 C 585.06616 735.0813 580.7513 743.8335 569.6072 743.74036 C 532.3119 744.48083 495.0032 743.6057 457.71396 744.0 C 443.72287 744.0 429.7318 744.0 415.74072 744.0 C 410.06552 743.9331 403.9869 744.0432 399.0202 747.2055 C 390.41635 752.7891 390.56406 766.72064 387.68103 775.2744 C 385.47403 782.6373 381.51102 795.4131 393.6962 798.077 C 410.9635 800.1973 428.56262 798.1103 445.89938 799.0 C 472.05698 799.0 498.20657 799.0 524.3482 799.0 C 549.7442 798.83655 575.2882 799.42444 600.50635 796.0117 C 609.6467 794.47455 620.7755 792.702 628.5 789.0 Z M 497.0 976.0 C 502.96863 937.6573 514.4567 900.25836 521.0 862.0 C 494.4 862.0 467.8 862.0 441.2 862.0 C 431.1861 862.0 421.2139 862.0 411.2 862.0 C 403.13657 862.5135 393.07236 860.9192 385.99725 863.702 C 379.96378 866.547 374.43112 871.09796 371.5978 877.27026 C 364.7995 900.5903 361.5846 924.9089 355.4644 948.4159 C 352.72708 958.6026 352.53607 974.1155 367.93597 975.8188 C 381.11017 976.33234 394.33563 975.728 407.50934 976.0 C 437.3529 976.0 467.16644 976.0 497.0 976.0 Z M 387.0 945.5 C 415.02173 946.9259 443.82452 945.2407 472.0 946.0 C 473.84323 927.7185 481.03244 910.2639 483.0 892.0 C 454.9861 892.0 427.0139 892.0 399.0 892.0 C 394.93988 909.50977 391.70993 928.47235 387.0 945.5 Z M 694.0 862.0 C 688.4677 862.18414 681.7682 861.4969 676.83685 862.9896 C 669.815 865.6245 663.3122 870.8636 660.31836 877.8473 C 657.5571 885.526 656.53186 893.68274 654.63947 901.57245 C 651.5631 916.40924 647.8476 931.1355 645.0 946.0 C 616.992 946.0 588.992 946.0 561.0 946.0 C 561.0 945.5007 561.0 944.99335 561.0 944.5 C 563.9573 932.25574 566.21295 919.8057 569.1805 907.55597 C 570.7085 898.82324 573.6365 888.72455 574.6872 880.67596 C 575.2442 874.01434 572.0871 867.02484 566.06494 863.86145 C 561.5691 861.61896 555.17633 861.84436 550.74506 862.31146 C 547.1113 862.0751 546.63684 867.6574 545.9621 870.19684 C 543.3188 881.1864 541.2474 892.299 538.6979 903.29565 C 536.29645 914.2502 534.0621 925.19885 531.5061 936.1139 C 530.13226 944.6222 526.0088 956.4682 527.8309 963.6494 C 531.08545 977.0312 543.49725 976.6313 552.7403 976.0 C 561.72784 976.0 570.71545 976.0 579.70306 976.0 C 594.28296 976.0 608.86285 976.0 623.44275 976.0 C 637.05054 975.4246 654.1896 978.3435 663.8994 970.6957 C 671.83746 965.7366 674.7685 956.4408 675.93726 947.76074 C 681.83575 920.2524 688.295 892.84503 693.7184 865.24866 C 693.88855 864.1669 693.97723 863.08185 694.0 862.0 Z M 774.0 946.0 C 759.65625 946.0 745.33307 946.0 731.0 946.0 C 735.5812 928.1602 738.4308 909.8419 743.0 892.0 C 753.95245 891.59863 767.9402 893.61005 777.0963 888.35425 C 786.67786 883.31305 792.2927 872.75085 792.0 862.0 C 778.0063 862.0 763.9937 862.0 750.0 862.0 C 750.4676 854.9977 753.04126 845.8866 746.9411 839.5728 C 742.2409 833.7119 732.79175 832.39496 726.36066 833.44183 C 722.44104 834.98193 723.23755 842.58856 721.6294 845.61475 C 720.62213 850.2893 719.53235 854.9379 718.5716 859.6203 C 716.0895 871.861 712.98035 883.96875 710.6444 896.22577 C 706.36975 915.106 702.34106 934.0774 698.3364 952.9952 C 697.05725 961.19006 697.8817 973.5516 710.2135 975.5834 C 720.80695 976.57544 731.5285 975.5634 742.14716 976.0 C 761.5476 977.8995 773.80096 963.0563 774.0 946.0 Z M 802.0371 958.26196 C 801.65393 969.6388 810.4551 976.7538 820.34503 975.99866 C 844.2344 976.00244 868.1294 975.998 892.0057 976.0 C 911.0926 975.4171 941.7235 983.54315 949.0279 954.8359 C 951.6626 941.98083 954.6372 929.18024 957.4294 916.3701 C 959.38354 906.9057 961.5586 897.5109 963.7206 888.09686 C 965.4209 881.21924 965.6953 873.0923 960.7187 867.4527 C 956.74115 862.5676 951.59204 861.71185 946.07166 862.0 C 928.52216 862.0 911.0221 862.0 893.48846 862.0 C 878.9346 862.0 864.4222 862.0 849.86835 862.0 C 839.8863 861.0184 829.16833 863.47534 822.9496 872.2263 C 814.9451 884.40704 814.90607 902.56354 810.79755 914.91907 C 808.50757 928.94464 803.2932 945.05426 802.0371 958.26196 Z M 835.0 945.5 C 863.0217 946.9259 891.8245 945.2407 920.0 946.0 C 922.15955 927.7458 928.73895 910.227 931.0 892.0 C 903.0 892.0 875.0 892.0 847.0 892.0 C 845.94617 901.0245 842.9068 909.776 841.38196 918.7219 C 838.66986 927.54315 838.05176 937.9271 835.0 945.5 Z M 969.0 1005.0 C 975.2638 1005.0461 981.72577 1004.911 987.6211 1002.4862 C 992.5217 1000.356 997.04254 995.72577 1000.10095 992.033 C 1003.4841 987.8475 1003.66724 982.12256 1005.7635 977.45544 C 1009.513 974.58234 1017.33484 976.934 1021.54596 976.0 C 1042.0697 976.0 1062.5935 976.0 1083.1173 976.0 C 1090.6532 975.61725 1099.6835 976.642 1106.5038 975.2222 C 1120.3297 971.24756 1125.1115 959.833 1127.0253 947.89746 C 1130.8508 930.0624 1134.8885 912.2421 1138.6819 894.40125 C 1140.7021 885.8399 1143.0767 874.1672 1137.5565 867.90295 C 1131.2766 860.08295 1119.9854 862.0992 1111.9391 862.0 C 1089.43 862.0 1066.8875 862.0 1044.3944 862.0 C 1030.1111 862.5586 1010.8935 858.0751 999.5464 872.15576 C 992.776 881.53516 992.4808 893.8904 989.5341 904.6735 C 985.8187 921.7401 982.30273 938.8542 978.48773 955.8981 C 976.3723 964.3364 974.8316 972.88403 972.917 981.34894 C 971.2813 988.93036 968.8145 997.8294 969.0 1005.0 Z M 1012.0 944.5 C 1012.03064 945.0496 1012.18604 945.5575 1012.5 946.0 C 1040.3433 946.0 1068.1674 946.0 1096.0 946.0 C 1100.5812 928.1602 1103.4308 909.8419 1108.0 892.0 C 1084.192 892.0 1060.392 892.0 1036.6 892.0 C 1031.3906 892.389 1023.776 890.03644 1022.58856 897.461 C 1018.5568 912.6805 1016.3856 929.76575 1012.0 944.5 Z M 1176.0 976.0 C 1178.6998 960.8574 1182.5991 945.9317 1185.5841 930.8546 C 1187.5157 924.1161 1188.3878 914.8204 1181.7181 908.5223 C 1175.4946 902.5884 1167.7665 904.2416 1160.0 904.0 C 1156.9775 919.6439 1153.0732 935.1919 1150.0116 950.834 C 1148.0264 957.86523 1148.3102 966.3442 1154.1516 971.5338 C 1160.3167 977.66846 1168.2595 975.66473 1176.0 976.0 Z M 1163.0 890.5 C 1163.0 890.9993 1163.0 891.50665 1163.0 892.0 C 1168.4047 892.0 1173.7954 892.0 1179.2 892.0 C 1183.2054 891.8146 1188.0068 892.3051 1191.6433 891.6409 C 1194.9111 891.7191 1195.0234 887.70795 1195.6293 885.3299 C 1196.9346 877.52856 1199.6227 869.9474 1200.0 862.0 C 1189.6619 862.0 1179.3275 862.0 1169.0 862.0 C 1166.957 871.26514 1165.397 881.5584 1163.0 890.5 Z M 1422.0 645.0 C 1417.1411 670.0498 1409.8352 694.6826 1404.33 719.61084 C 1399.9255 738.3288 1395.2441 757.0013 1390.8247 775.7006 C 1389.5145 781.537 1385.8424 790.47015 1392.1034 795.7271 C 1397.3033 799.30383 1405.1272 798.77563 1410.5497 798.9998 C 1422.7133 799.00037 1434.8597 798.9997 1447.0195 799.0 C 1461.6865 799.17255 1484.1229 802.46655 1487.3788 780.37897 C 1491.0731 764.16364 1495.365 748.09515 1499.034 731.88226 C 1505.494 704.7123 1512.5006 677.65466 1518.6642 650.4161 C 1518.9728 648.58185 1519.6562 646.81226 1520.0 645.0 C 1548.8 645.0 1577.6 645.0 1606.4 645.0 C 1628.2 645.0 1650.0 645.0 1671.8 645.0 C 1678.2274 645.237 1686.9553 642.43475 1690.1245 634.7232 C 1692.0479 628.45184 1693.0372 621.89606 1694.594 615.52826 C 1695.369 609.99976 1698.8718 604.5908 1697.4401 598.8552 C 1693.5083 588.0628 1679.0896 591.7077 1670.8217 591.0 C 1638.4459 591.0 1606.0366 591.0 1573.6769 591.0 C 1560.1168 591.0 1546.5549 591.0 1533.0 591.0 C 1537.4838 569.5413 1543.3811 548.3459 1548.4955 527.02795 C 1552.343 511.16147 1555.94 495.24734 1560.1412 479.4653 C 1561.7671 473.5763 1563.286 466.62457 1559.7845 461.0489 C 1556.5259 455.77374 1550.0099 455.90842 1545.0803 456.0 C 1524.4735 456.03806 1503.9014 455.95358 1483.31 456.02505 C 1461.979 455.71365 1462.049 485.88165 1457.7443 499.0425 C 1450.9662 526.6086 1444.4458 554.2109 1437.302 581.67523 C 1436.553 584.61206 1436.1501 590.7281 1431.8859 590.7856 C 1399.6743 591.3971 1367.406 590.6744 1335.191 591.0 C 1328.5687 590.4989 1320.1365 592.0232 1314.4016 589.43365 C 1303.6202 582.02893 1312.4617 562.5012 1313.9291 553.3243 C 1319.576 530.67236 1324.7686 507.88974 1330.4381 485.24356 C 1332.3851 477.0887 1337.99 464.4576 1328.3455 457.41452 C 1323.4005 455.31653 1317.8291 456.23877 1312.628 456.0 C 1292.3699 456.50232 1272.0059 455.3874 1251.7698 456.3308 C 1234.4226 460.67007 1235.4672 482.5995 1231.083 495.63312 C 1224.3607 523.20514 1217.6398 550.739 1210.93 578.2992 C 1206.4231 595.86273 1200.2802 620.59393 1217.74 636.23047 C 1229.1498 648.3856 1250.8407 644.36993 1265.2512 645.0 C 1317.4912 645.0 1369.7612 645.0 1422.0 645.0 Z M 1283.0 946.0 C 1268.7281 945.31 1254.1973 946.8567 1240.0 945.5 C 1244.5654 928.81525 1247.3622 911.1525 1251.4784 894.24426 C 1252.9008 886.895 1256.4802 876.99744 1250.906 868.764 C 1245.0082 860.40106 1235.8282 861.83734 1227.0 862.0 C 1224.0314 878.5805 1219.4884 894.86273 1216.4149 911.4225 C 1213.8403 923.88104 1210.7076 936.2342 1208.3218 948.73157 C 1206.4033 956.64325 1205.1821 968.5697 1214.4766 973.87463 C 1221.1309 977.2884 1229.2102 975.3953 1236.3434 976.0 C 1247.6486 975.7363 1261.6881 977.7061 1269.9366 971.6637 C 1278.5669 966.21735 1282.8547 955.9084 1283.0 946.0 Z M 1308.0377 958.2602 C 1307.6542 969.63934 1316.4548 976.7533 1326.3451 975.99866 C 1350.2344 976.00244 1374.1294 975.998 1398.0057 976.0 C 1417.0925 975.4171 1447.7235 983.54315 1455.028 954.8359 C 1457.7423 942.00684 1460.546 929.1657 1463.4545 916.3792 C 1465.6536 906.78436 1467.3901 897.1018 1469.839 887.568 C 1471.5725 880.7907 1471.7599 872.9339 1466.7212 867.4543 C 1462.7445 862.57227 1457.5878 861.70667 1452.0717 862.0 C 1434.544 862.0 1417.0162 862.0 1399.4885 862.0 C 1384.9346 862.0 1370.4222 862.0 1355.8683 862.0 C 1345.8862 861.0184 1335.1683 863.47534 1328.9496 872.2263 C 1320.9452 884.40704 1320.906 902.56354 1316.7976 914.91907 C 1314.5342 928.95935 1309.2609 945.0406 1308.0377 958.2602 Z M 1341.0 945.5 C 1369.0217 946.9259 1397.8245 945.2407 1426.0 946.0 C 1428.1276 927.7327 1434.779 910.2464 1437.0 892.0 C 1409.0139 892.0 1380.9861 892.0 1353.0 892.0 C 1351.9462 901.0245 1348.9069 909.776 1347.382 918.7219 C 1344.6699 927.54315 1344.0518 937.9271 1341.0 945.5 Z M 1554.0 946.0 C 1540.0062 946.0 1525.9938 946.0 1512.0 946.0 C 1512.0 945.5007 1512.0 944.99335 1512.0 944.5 C 1515.2507 926.9574 1520.6627 909.6942 1523.0 892.0 C 1534.2097 891.4568 1548.6709 893.7817 1558.013 888.2792 C 1567.7429 882.98 1572.7084 872.68604 1573.0 862.0 C 1558.6562 862.0 1544.3331 862.0 1530.0 862.0 C 1532.2084 854.82306 1533.1458 846.4232 1528.1469 840.0546 C 1523.4885 833.67773 1516.3777 833.23645 1509.207 833.02783 C 1507.8071 832.99664 1506.3866 832.99994 1505.0 833.0 C 1496.5344 870.9269 1488.9202 909.02795 1480.28 946.91815 C 1478.6614 954.9918 1475.3257 964.8742 1484.1819 972.44275 C 1490.4855 977.4191 1499.2441 975.6356 1506.6029 976.0 C 1517.4629 975.41266 1531.5427 977.83923 1540.4558 972.24445 C 1549.5323 966.70483 1554.845 956.5953 1554.0 946.0 Z " />

<path style="fill:rgb(0.0%,0.0%,0.0%);fill-rule:evenodd;stroke:none;" name="Path No.94" d="M 17.0 1016.75287 C 16.141209 1051.8628 29.623882 1086.9875 54.232674 1111.7327 C 79.36225 1136.9553 114.93355 1150.0746 150.30135 1149.996 C 429.4144 1150.0074 708.5271 1149.9939 987.6401 1150.0 C 1127.3965 1150.0 1267.1528 1150.0 1406.9092 1150.0 C 1441.9062 1150.0 1476.8954 1150.0 1511.8765 1150.0 C 1537.4934 1149.3376 1563.3177 1151.284 1588.8132 1148.1349 C 1623.0614 1144.1272 1657.1819 1129.7809 1681.1023 1104.3977 C 1705.5953 1081.2875 1721.6353 1043.946 1729.7819 1014.85516 C 1764.4248 873.9232 1797.8835 732.71716 1832.5548 591.8015 C 1844.8849 538.713 1858.8182 486.00894 1870.932 432.87793 C 1881.3195 387.866 1871.0181 337.50043 1838.2653 303.76526 C 1824.5938 289.24612 1807.0126 279.1907 1788.4551 272.3914 C 1769.5054 265.73752 1749.4468 264.31522 1729.5543 264.19666 C 1408.9277 263.63583 1088.299 264.2986 767.6701 264.0 C 651.28503 264.0 534.9416 264.0 418.55652 264.0 C 375.91534 265.31058 332.42804 261.0326 290.2405 269.24374 C 257.24994 275.69577 227.65639 293.60294 205.82947 318.9854 C 166.74728 365.27615 158.3677 427.6347 143.96599 484.1177 C 121.735565 572.7034 100.22491 661.4494 77.99093 750.02423 C 67.06779 794.4681 56.191723 838.89813 44.938084 883.2548 C 39.216404 905.28015 34.03123 927.4228 28.62328 949.50745 C 23.297705 971.48254 16.33058 993.6071 17.0 1016.75287 Z M 216.13788 909.0079 C 216.10226 915.50684 221.31277 918.74194 226.71393 918.8918 C 242.01491 919.2004 257.3373 918.8357 272.62866 919.0 C 285.08743 918.62897 304.9689 923.35345 309.78754 904.76666 C 320.6357 859.90784 331.59677 815.0915 342.4425 770.23956 C 354.85202 720.8716 366.10532 671.2622 378.5311 621.8986 C 380.69748 612.39905 383.2524 602.96893 385.28638 593.44385 C 387.0045 581.4198 375.32153 578.87415 366.7622 579.02515 C 348.26297 579.295 329.76636 578.6202 311.2896 579.2293 C 304.36383 579.8051 297.51083 583.26245 293.94165 589.45044 C 288.4722 601.9268 287.6452 615.99493 283.52362 628.89264 C 262.00217 722.36304 236.88344 815.28217 216.13788 909.0079 Z M 630.0 788.0 C 630.2445 795.23254 637.81573 798.3248 643.2709 797.9889 C 680.2532 798.02057 717.2399 797.98315 754.21967 798.0 C 763.46124 797.6696 772.8106 798.50867 782.01654 797.46515 C 793.9107 795.5615 802.4235 785.69635 812.1157 779.4205 C 821.7517 772.4595 831.017 764.99725 840.7118 758.1393 C 857.5711 745.8037 874.0961 733.0673 890.8648 720.6204 C 899.4049 714.3876 907.92175 708.16724 916.34314 701.7812 C 920.59515 698.54926 924.871 695.3183 929.17017 692.15234 C 933.1082 689.56586 938.0067 684.5855 942.0 684.0 C 950.36584 700.6751 962.84644 715.49005 971.9016 731.87305 C 979.5873 743.7228 987.3143 755.5606 994.80225 767.53046 C 1000.87775 775.98016 1006.4774 787.16974 1012.9618 794.2304 C 1019.932 799.95074 1031.9752 797.2217 1040.0587 798.0 C 1054.575 798.0 1069.0913 798.0 1083.6075 798.0 C 1096.507 797.26855 1113.8315 800.6703 1120.365 788.6399 C 1123.5524 782.113 1117.9722 776.1605 1115.006 771.5232 C 1088.7654 734.13513 1062.9269 696.4769 1036.7001 659.09033 C 1027.806 647.1284 1019.9443 634.4065 1011.0 622.5 C 1071.9932 574.3415 1133.9075 527.2826 1194.9954 479.2316 C 1198.1576 476.46555 1203.0488 473.69897 1203.9333 468.29898 C 1204.0947 466.33493 1204.235 463.65607 1202.951 462.08798 C 1200.062 457.4176 1195.2032 457.03162 1190.5435 457.01843 C 1171.4635 456.9663 1152.386 457.02744 1133.3126 457.0003 C 1119.0902 455.86963 1110.9388 465.45697 1100.6747 473.23776 C 1072.1362 496.16083 1043.0795 518.4137 1014.52637 541.3116 C 1001.59076 550.7469 989.5771 561.9039 976.5 571.0 C 958.45135 547.4076 943.3358 521.63525 925.93396 497.57648 C 919.4519 488.36133 913.3658 478.8849 906.83527 469.71994 C 904.19025 465.7022 901.65155 461.16367 897.0395 459.09863 C 887.1432 455.2876 875.9175 458.01288 865.6236 457.0 C 847.0458 457.0 828.468 457.0 809.8902 457.0 C 803.13184 456.68423 795.55695 457.00528 790.4586 462.2251 C 780.78174 471.92606 793.24176 481.71457 797.8633 489.71225 C 815.6458 515.1741 833.49225 540.6121 851.1475 566.15314 C 867.29675 588.78284 882.72003 611.9838 899.0 634.5 C 865.76416 659.54144 832.5769 685.0971 799.45166 710.3597 C 790.9872 716.687 782.6178 723.1454 774.22626 729.5447 C 768.0368 734.36694 761.86163 739.2254 755.51086 743.8292 C 749.6076 747.3172 742.1356 745.4021 735.67816 746.0 C 715.455 746.0 695.2189 746.0 675.0 746.0 C 682.8575 726.20294 689.11926 705.7427 693.05963 684.7378 C 701.79767 648.75977 710.8498 612.88727 719.3307 576.85706 C 724.8675 549.76605 736.4592 521.5114 730.2294 493.39642 C 724.4752 471.44278 704.7619 463.18967 684.5732 459.4518 C 651.70557 454.4807 618.3522 456.36868 585.2561 456.0 C 551.0805 456.0 516.9466 456.0 482.77103 456.0 C 450.19366 456.0 417.65793 456.0 385.08057 456.0 C 370.9048 456.11597 356.70096 455.858 342.5376 456.07806 C 336.37488 456.10675 330.06302 458.43466 326.28186 463.51617 C 322.8117 468.41656 322.69284 474.85696 320.9094 480.40436 C 319.38687 488.47836 311.29037 505.105 325.5844 508.24585 C 348.64923 510.3597 372.09064 507.89166 395.22067 509.0 C 436.19382 509.0 477.1174 509.0 518.0746 509.0 C 548.6521 509.0 579.18805 509.0 609.76556 509.0 C 615.5524 509.05588 621.3365 508.92535 627.1135 509.05627 C 640.5306 508.874 639.0715 521.64606 636.0612 530.7371 C 620.08923 596.6947 604.1424 662.65857 587.8466 728.5379 C 585.95996 738.5336 579.686 744.8788 570.0564 744.78796 C 532.9508 745.39264 495.81232 744.67804 458.71396 745.0 C 444.709 745.0 430.7457 745.0 416.74072 745.0 C 406.53915 744.2824 394.08127 746.8907 392.21417 761.0888 C 391.1385 770.14764 385.86127 782.2948 386.71576 789.916 C 388.47766 799.61224 402.8305 797.3626 409.1719 798.0 C 441.70837 798.0 474.2448 798.0 506.78128 798.0 C 538.5845 797.71564 570.63446 799.25385 602.21936 794.6207 C 611.83575 793.93146 620.7581 790.1012 630.0 788.0 Z M 496.0 975.0 C 502.58994 937.6927 512.0877 900.4758 520.0 863.5 C 479.09003 862.0845 437.86816 863.7466 396.8926 863.00684 C 387.40118 862.38446 377.7832 869.39557 373.4906 876.5437 C 367.96927 889.2856 367.6559 903.74084 363.556 916.9272 C 360.90903 930.4647 357.0048 943.82697 355.0875 957.47473 C 354.5606 962.91296 357.19373 969.0647 361.32037 971.7822 C 365.49622 975.2235 371.06473 975.1693 376.12155 975.0 C 413.9168 975.0 451.69833 975.0 489.47916 975.0 C 491.64273 975.0 493.84384 975.0 496.0 975.0 Z M 386.0 945.5 C 386.0 945.9993 386.0 946.50665 386.0 947.0 C 415.008 947.0 444.008 947.0 473.0 947.0 C 473.81097 937.3922 477.18253 928.1429 478.7581 918.664 C 481.4527 909.8 482.0238 900.19476 485.0 891.5 C 456.12753 890.0741 426.9308 891.7593 398.0 891.0 C 394.1305 909.04834 390.26593 927.6811 386.0 945.5 Z M 693.0 863.0 C 687.46075 863.13367 681.62384 862.4238 676.3458 864.5388 C 670.1616 867.398 664.30524 871.98126 661.5264 878.3659 C 658.70825 885.3705 658.0172 892.9565 656.1687 900.2056 C 652.778 915.79193 649.07745 931.3612 646.0 947.0 C 617.0711 946.2407 587.8489 947.9259 559.0 946.5 C 564.8443 925.9384 567.9194 904.165 573.2161 883.3651 C 575.81274 871.6023 566.87573 862.40076 556.1821 863.03107 C 553.94275 863.2041 549.8695 862.9006 548.70465 864.6695 C 546.4887 871.9452 545.30756 879.5852 543.4739 886.97015 C 540.0665 902.03436 537.0312 917.17114 533.6444 932.2257 C 531.9931 939.87885 530.31616 947.5112 528.72455 955.1775 C 526.1125 964.5709 533.9324 974.86804 543.56433 974.8821 C 551.5376 975.1731 559.5499 974.8662 567.5206 975.0 C 582.286 975.0 597.09296 975.0 611.85834 975.0 C 622.4435 975.0 633.0286 975.0 643.6137 975.0 C 658.2687 976.60614 671.91406 965.92163 674.04926 951.31006 C 677.0531 937.2002 680.30505 923.1688 683.2111 909.0527 C 686.32404 893.6706 690.1706 878.4264 693.0 863.0 Z M 773.0 947.0 C 758.65625 947.0 744.33307 947.0 730.0 947.0 C 733.4353 928.27136 737.99585 909.63007 742.0 891.0 C 752.67114 890.5243 766.1732 892.5309 775.235 887.8273 C 784.77563 883.29144 790.5765 873.419 791.0 863.0 C 783.60126 863.0 776.18274 863.0 768.8 863.0 C 762.4745 862.09644 752.69885 864.40356 748.0 861.5 C 752.4689 853.4184 750.0303 841.9869 742.08777 837.0908 C 738.22864 834.75793 732.212 833.9765 728.1466 834.4608 C 723.4541 834.7235 724.184 843.81616 722.6361 846.5901 C 720.7757 854.2829 719.2768 862.0508 717.588 869.7742 C 712.1673 893.8852 707.20953 918.0679 701.85864 942.19275 C 700.107 950.71606 696.5624 960.4347 701.43536 968.01764 C 705.70496 975.2337 713.3216 975.2298 720.63983 975.0 C 731.4747 974.1012 744.7526 976.36633 754.45264 973.5974 C 764.36725 969.98315 770.7721 960.74774 772.32947 950.6103 C 772.68726 949.436 772.9445 948.22955 773.0 947.0 Z M 803.0988 958.23865 C 802.7279 967.75366 811.0399 975.6334 820.1844 974.9927 C 843.6693 975.01355 867.141 974.9889 890.61066 975.0 C 909.4938 973.9309 938.8881 982.5608 947.59973 955.4437 C 952.5728 930.31335 959.5021 905.4762 963.7023 880.2176 C 964.0965 874.1513 961.00745 868.02875 955.6291 864.9892 C 947.7216 861.26733 935.34454 864.06964 925.3574 863.0 C 914.9801 863.0 904.6522 863.0 894.29083 863.0 C 879.7591 863.0 865.19385 863.0 850.67804 863.0 C 840.76697 862.0291 830.10913 864.55096 823.9496 873.2263 C 816.03217 885.2372 815.95996 903.15656 811.9238 915.3577 C 809.27673 929.59094 805.2209 943.6831 803.0988 958.23865 Z M 834.0 945.5 C 834.0 945.9993 834.0 946.50665 834.0 947.0 C 863.0219 947.0 891.99414 947.0 921.0 947.0 C 924.1577 928.2202 929.0462 909.6263 933.0 891.0 C 904.0 891.0 875.0 891.0 846.0 891.0 C 842.5314 909.0282 838.08875 927.8175 834.0 945.5 Z M 970.0 1004.0 C 976.02954 1003.9805 982.3527 1003.5768 987.87946 1000.903 C 992.3806 998.389 996.8187 994.0457 999.63855 990.2952 C 1003.0197 986.50684 1002.5389 978.7348 1005.4363 975.83167 C 1015.9862 973.8094 1027.1853 975.9134 1037.8816 975.0 C 1056.8192 975.0 1075.7489 975.0 1094.6707 975.0 C 1107.6393 976.3514 1121.217 968.29736 1124.2267 954.9887 C 1128.1079 935.87006 1132.7577 916.896 1136.7336 897.80524 C 1138.1569 888.5795 1143.0406 877.6919 1137.1667 869.66766 C 1131.1282 860.59265 1118.5917 863.35583 1110.3425 863.0 C 1088.0343 863.0 1065.6925 863.0 1043.4001 863.0 C 1029.16 863.78723 1011.9018 858.6158 999.89716 873.9695 C 993.8495 883.1913 993.11395 896.6687 990.42847 906.13196 C 986.8196 922.8761 983.3184 939.6239 979.618 956.349 C 977.5068 964.6604 976.0594 973.11365 974.1169 981.44415 C 972.76025 988.7179 970.0781 997.1734 970.0 1004.0 Z M 1011.0 947.0 C 1039.6647 947.0 1068.3406 947.0 1097.0 947.0 C 1100.991 928.3745 1105.5975 909.736 1109.0 891.0 C 1084.2059 891.0 1059.378 891.0 1034.6 891.0 C 1031.4829 891.0902 1028.2966 890.78894 1025.2144 891.38196 C 1022.33636 891.13763 1021.87854 895.686 1021.326 897.572 C 1017.9623 914.04504 1013.765 930.4428 1011.0 947.0 Z M 1175.0 975.0 C 1177.4427 960.35004 1181.4774 946.00745 1184.2083 931.4176 C 1186.251 925.046 1187.4976 916.5295 1181.4183 910.2458 C 1175.9178 903.9661 1168.4432 905.0301 1161.0 905.0 C 1158.049 919.96173 1154.4218 934.83057 1151.3787 949.7739 C 1149.9573 955.82745 1148.3129 964.03723 1154.4342 969.8144 C 1159.9799 976.2105 1167.4872 975.0368 1175.0 975.0 Z M 1164.0 890.5 C 1169.6492 891.8231 1176.0692 890.3435 1181.8807 891.0 C 1184.9254 890.9172 1188.051 891.2119 1191.0457 890.5771 C 1193.9994 890.6855 1194.0908 885.4751 1194.7798 883.542 C 1196.1218 876.6777 1198.1246 869.9431 1199.0 863.0 C 1189.3331 863.0 1179.6615 863.0 1170.0 863.0 C 1167.7446 872.1114 1166.698 882.6675 1164.0 890.5 Z M 1424.0 644.0 C 1412.7373 691.66736 1400.3503 739.2535 1389.7781 787.06244 C 1389.4794 794.3643 1395.3888 796.9108 1401.2365 797.50507 C 1412.7986 798.5436 1424.4786 797.6214 1436.0591 798.0 C 1445.013 797.91864 1454.0045 798.1038 1462.9545 797.93274 C 1468.7312 797.7824 1474.8297 796.6927 1479.3704 792.86084 C 1486.5304 786.944 1486.3435 776.6736 1488.8861 768.5128 C 1491.093 759.9285 1493.179 751.31604 1495.0784 742.674 C 1502.1611 714.64294 1508.5569 686.458 1515.653 658.4448 C 1516.7002 653.6176 1517.8384 648.7885 1519.0 644.0 C 1547.8219 644.0 1576.5941 644.0 1605.4 644.0 C 1627.0 644.0 1648.6 644.0 1670.2 644.0 C 1677.4207 644.4627 1685.7239 641.1995 1688.8948 634.24164 C 1691.0104 628.02014 1691.8617 621.38165 1693.5005 615.0247 C 1694.0905 609.6452 1697.8969 603.5421 1696.1112 598.9256 C 1692.0901 589.3428 1675.5266 592.50995 1668.0227 592.0 C 1635.655 592.0 1603.2457 592.0 1570.8782 592.0 C 1557.6489 591.3255 1544.1504 592.8411 1531.0 591.5 C 1539.8293 560.71735 1545.9701 528.74066 1554.3103 497.72626 C 1556.2272 489.85117 1558.3003 482.01382 1560.1993 474.15048 C 1561.672 468.43884 1560.6161 460.9062 1554.7811 458.52435 C 1546.9445 455.50644 1535.1953 457.98544 1525.4934 457.0 C 1515.7142 457.0 1505.8933 457.0 1496.114 457.0 C 1487.162 457.10175 1476.6926 454.82532 1469.2834 464.48657 C 1465.1444 469.738 1464.5713 476.6798 1463.0208 482.9017 C 1457.9252 502.9709 1452.9797 523.06964 1448.186 543.2043 C 1444.7758 556.90607 1441.3379 570.5825 1437.919 584.27747 C 1437.169 587.7808 1436.9539 591.82996 1432.3276 591.8646 C 1403.8795 592.2507 1375.389 591.79443 1346.9426 592.0 C 1340.5536 592.0 1334.206 592.0 1327.817 592.0 C 1322.1322 591.83746 1315.4167 593.0044 1311.3787 588.6832 C 1303.6014 579.9816 1310.7684 565.91943 1311.4888 558.2104 C 1316.3557 538.9833 1320.8884 519.7085 1325.6477 500.47055 C 1327.6019 491.88385 1329.5175 483.26318 1331.8411 474.76572 C 1333.852 467.7964 1332.2446 457.02066 1321.7715 457.0738 C 1305.0409 456.86334 1288.3187 457.11206 1271.6006 457.0 C 1264.6515 457.5347 1256.0424 456.05725 1249.8882 458.22415 C 1237.1261 463.55103 1236.5813 478.54514 1234.0286 488.8811 C 1228.5538 509.87347 1223.6069 530.99316 1218.4792 552.0626 C 1215.1395 567.53687 1209.9171 585.43066 1207.7445 599.7832 C 1205.2451 611.18774 1209.4738 625.75433 1216.9054 633.3545 C 1222.8783 640.4162 1231.9342 643.8889 1241.0593 643.92615 C 1271.2489 644.1368 1301.4631 643.8878 1331.6437 644.0 C 1362.4296 644.0 1393.2261 644.0 1424.0 644.0 Z M 1282.0 947.0 C 1267.6562 947.0 1253.3331 947.0 1239.0 947.0 C 1239.0 946.5007 1239.0 945.99335 1239.0 945.5 C 1243.0137 928.81744 1246.2506 911.9225 1250.0549 895.2038 C 1251.2998 888.04724 1255.3308 878.8983 1250.5133 870.6283 C 1244.9183 861.4816 1235.7595 862.83777 1228.0 863.0 C 1222.6235 895.22235 1212.5046 926.8927 1208.0542 959.19714 C 1207.6978 980.27124 1237.1544 974.8373 1249.1671 975.0 C 1257.5842 975.77386 1266.4835 974.3951 1272.5474 967.8195 C 1278.4634 962.51874 1281.1716 954.6914 1282.0 947.0 Z M 1309.1033 958.2303 C 1308.7332 967.7571 1317.0334 975.6326 1326.1843 974.9927 C 1349.6693 975.01355 1373.141 974.9889 1396.6107 975.0 C 1415.4938 973.9309 1444.8882 982.5608 1453.5997 955.4437 C 1458.5549 930.25574 1465.5144 905.36505 1469.7445 880.06165 C 1470.2246 874.0029 1466.8141 867.99445 1461.5791 864.95496 C 1453.6697 861.28204 1441.3317 864.06635 1431.3549 863.0 C 1420.9984 863.0 1410.6418 863.0 1400.2853 863.0 C 1385.7383 863.0 1371.1993 863.0 1356.6683 863.0 C 1346.7546 862.03174 1336.1104 864.5535 1329.9496 873.2263 C 1322.0322 885.2372 1321.96 903.15656 1317.9238 915.3577 C 1315.3503 929.60175 1311.1366 943.66327 1309.1033 958.2303 Z M 1340.0 945.5 C 1340.0 945.9993 1340.0 946.50665 1340.0 947.0 C 1369.0219 947.0 1397.9941 947.0 1427.0 947.0 C 1430.098 928.2047 1435.1099 909.6338 1439.0 891.0 C 1410.0 891.0 1381.0 891.0 1352.0 891.0 C 1348.5314 909.0282 1344.0887 927.8175 1340.0 945.5 Z M 1553.0 947.0 C 1538.7281 946.31 1524.1973 947.8567 1510.0 946.5 C 1513.1785 937.94775 1513.4717 928.151 1516.3627 919.4158 C 1518.0479 910.19366 1521.2771 899.5776 1522.0 891.0 C 1532.7003 890.3011 1546.3241 892.6505 1555.5026 888.1451 C 1566.3901 882.6339 1570.3903 873.57574 1572.0 863.0 C 1557.6562 863.0 1543.3331 863.0 1529.0 863.0 C 1529.6924 855.88086 1533.2548 848.5403 1527.1525 841.063 C 1521.9056 834.0787 1513.8518 834.15753 1506.0 834.0 C 1497.8898 870.6906 1490.326 907.4826 1482.0564 944.13446 C 1480.72 952.30426 1476.3545 961.52875 1483.7372 970.0111 C 1489.1147 976.34265 1497.938 974.7917 1504.5419 975.0 C 1515.4412 974.32245 1529.4038 976.7415 1538.5826 971.80804 C 1547.3589 966.7432 1553.3337 957.2236 1553.0 947.0 Z " />
</g>
</svg>
